<?xml version="1.0" encoding="utf-8"?>
<!-- Generator: Adobe Illustrator 23.0.6, SVG Export Plug-In . SVG Version: 6.00 Build 0)  -->
<svg version="1.1" id="Capa_1" xmlns="http://www.w3.org/2000/svg" xmlns:xlink="http://www.w3.org/1999/xlink" x="0px" y="0px"
	 viewBox="0 0 585.3 581.3" style="enable-background:new 0 0 585.3 581.3;" xml:space="preserve">
<style type="text/css">
	.st0{fill:#FFFFFF;}
</style>
<g>
	<path class="st0" d="M419.2,493.8h-81.7c-5.5,0-10-4.5-10-10V183.6c0-11.6-9.7-20-23-20h-88.6c-7.9,0-17,8.7-17,20v23.7
		c0,11,9,20,20,20h28.9c5.5,0,10,4.5,10,10v246.5c0,5.5-4.5,10-10,10h-81.7c-11,0-20,9-20,20v23.7c0,11,9,20,20,20h253.1
		c11,0,20-9,20-20v-23.7C439.2,502.7,430.2,493.8,419.2,493.8z M429.2,537.4c0,5.5-4.5,10-10,10H166.1c-5.5,0-10-4.5-10-10v-23.7
		c0-5.5,4.5-10,10-10h81.7c11,0,20-9,20-20V237.3c0-11-9-20-20-20h-28.9c-5.5,0-10-4.5-10-10v-23.7c0-5.7,4.7-10,7-10h88.6
		c7.8,0,13,4,13,10v300.2c0,11,9,20,20,20h81.7c5.5,0,10,4.5,10,10V537.4z"/>
	<path class="st0" d="M282,138.4c31.6,0,57.3-25.7,57.3-57.3c0-31.6-25.7-57.3-57.3-57.3c-31.6,0-57.3,25.7-57.3,57.3
		C224.8,112.7,250.5,138.4,282,138.4z M282,33.8c26.1,0,47.3,21.2,47.3,47.3c0,26.1-21.2,47.3-47.3,47.3s-47.3-21.2-47.3-47.3
		C234.8,55,256,33.8,282,33.8z"/>
</g>
</svg>
