<?xml version="1.0" encoding="utf-8"?>
<!-- Generator: Adobe Illustrator 23.0.6, SVG Export Plug-In . SVG Version: 6.00 Build 0)  -->
<svg version="1.1" id="Capa_1" xmlns="http://www.w3.org/2000/svg" xmlns:xlink="http://www.w3.org/1999/xlink" x="0px" y="0px"
	 viewBox="0 0 482 342" style="enable-background:new 0 0 482 342;" xml:space="preserve">
<style type="text/css">
	.st0{clip-path:url(#SVGID_2_);fill:#00467C;}
	.st1{opacity:0.25;clip-path:url(#SVGID_2_);}
	.st2{opacity:0.25;fill:none;stroke:#56A5DC;stroke-miterlimit:10;}
	.st3{opacity:0.25;fill:none;stroke:#57A5DC;stroke-miterlimit:10;}
	.st4{opacity:0.25;fill:none;stroke:#58A6DC;stroke-miterlimit:10;}
	.st5{opacity:0.25;fill:none;stroke:#59A6DC;stroke-miterlimit:10;}
	.st6{opacity:0.25;fill:none;stroke:#5AA6DC;stroke-miterlimit:10;}
	.st7{opacity:0.25;fill:none;stroke:#5BA6DC;stroke-miterlimit:10;}
	.st8{opacity:0.25;fill:none;stroke:#5CA7DB;stroke-miterlimit:10;}
	.st9{opacity:0.25;fill:none;stroke:#5DA7DB;stroke-miterlimit:10;}
	.st10{opacity:0.25;fill:none;stroke:#5EA7DB;stroke-miterlimit:10;}
	.st11{opacity:0.25;fill:none;stroke:#5FA7DB;stroke-miterlimit:10;}
	.st12{opacity:0.25;fill:none;stroke:#5FA8DB;stroke-miterlimit:10;}
	.st13{opacity:0.25;fill:none;stroke:#60A8DB;stroke-miterlimit:10;}
	.st14{opacity:0.25;fill:none;stroke:#61A8DB;stroke-miterlimit:10;}
	.st15{opacity:0.25;fill:none;stroke:#62A8DB;stroke-miterlimit:10;}
	.st16{opacity:0.25;fill:none;stroke:#62A9DB;stroke-miterlimit:10;}
	.st17{opacity:0.25;fill:none;stroke:#63A9DB;stroke-miterlimit:10;}
	.st18{opacity:0.25;fill:none;stroke:#64A9DB;stroke-miterlimit:10;}
	.st19{opacity:0.25;fill:none;stroke:#65A9DB;stroke-miterlimit:10;}
	.st20{opacity:0.25;fill:none;stroke:#65AADB;stroke-miterlimit:10;}
	.st21{opacity:0.25;fill:none;stroke:#66AADB;stroke-miterlimit:10;}
	.st22{opacity:0.25;fill:none;stroke:#66AADA;stroke-miterlimit:10;}
	.st23{opacity:0.25;fill:none;stroke:#67AADA;stroke-miterlimit:10;}
	.st24{opacity:0.25;fill:none;stroke:#68AADA;stroke-miterlimit:10;}
	.st25{opacity:0.25;fill:none;stroke:#69ABDA;stroke-miterlimit:10;}
	.st26{opacity:0.25;fill:none;stroke:#6AABDA;stroke-miterlimit:10;}
	.st27{opacity:0.25;fill:none;stroke:#6BABDA;stroke-miterlimit:10;}
	.st28{opacity:0.25;fill:none;stroke:#6CACDA;stroke-miterlimit:10;}
	.st29{opacity:0.25;fill:none;stroke:#6DACDA;stroke-miterlimit:10;}
	.st30{opacity:0.25;fill:none;stroke:#6DACD9;stroke-miterlimit:10;}
	.st31{opacity:0.25;fill:none;stroke:#6EACD9;stroke-miterlimit:10;}
	.st32{opacity:0.25;fill:none;stroke:#6FACD9;stroke-miterlimit:10;}
	.st33{opacity:0.25;fill:none;stroke:#6FADD9;stroke-miterlimit:10;}
	.st34{opacity:0.25;fill:none;stroke:#70ADD9;stroke-miterlimit:10;}
	.st35{opacity:0.25;fill:none;stroke:#71ADD9;stroke-miterlimit:10;}
	.st36{opacity:0.25;fill:none;stroke:#72ADD9;stroke-miterlimit:10;}
	.st37{opacity:0.25;fill:none;stroke:#72AED8;stroke-miterlimit:10;}
	.st38{opacity:0.25;fill:none;stroke:#73AED8;stroke-miterlimit:10;}
	.st39{opacity:0.25;fill:none;stroke:#74AED8;stroke-miterlimit:10;}
	.st40{opacity:0.25;fill:none;stroke:#75AED8;stroke-miterlimit:10;}
	.st41{opacity:0.25;fill:none;stroke:#76AFD8;stroke-miterlimit:10;}
	.st42{opacity:0.25;fill:none;stroke:#77AFD8;stroke-miterlimit:10;}
	.st43{opacity:0.25;fill:none;stroke:#77AFD7;stroke-miterlimit:10;}
	.st44{opacity:0.25;fill:none;stroke:#78AFD7;stroke-miterlimit:10;}
	.st45{opacity:0.25;fill:none;stroke:#79AFD7;stroke-miterlimit:10;}
	.st46{opacity:0.25;fill:none;stroke:#79B0D7;stroke-miterlimit:10;}
	.st47{opacity:0.25;fill:none;stroke:#7AB0D7;stroke-miterlimit:10;}
	.st48{opacity:0.25;fill:none;stroke:#7BB0D7;stroke-miterlimit:10;}
	.st49{opacity:0.25;fill:none;stroke:#7BB0D6;stroke-miterlimit:10;}
	.st50{opacity:0.25;fill:none;stroke:#7CB1D6;stroke-miterlimit:10;}
	.st51{opacity:0.25;fill:none;stroke:#7DB1D6;stroke-miterlimit:10;}
	.st52{opacity:0.25;fill:none;stroke:#7EB1D6;stroke-miterlimit:10;}
	.st53{opacity:0.25;fill:none;stroke:#7FB2D6;stroke-miterlimit:10;}
	.st54{opacity:0.25;fill:none;stroke:#80B2D5;stroke-miterlimit:10;}
	.st55{opacity:0.25;fill:none;stroke:#81B2D5;stroke-miterlimit:10;}
	.st56{opacity:0.25;fill:none;stroke:#82B3D5;stroke-miterlimit:10;}
	.st57{opacity:0.25;fill:none;stroke:#83B3D5;stroke-miterlimit:10;}
	.st58{opacity:0.25;fill:none;stroke:#84B3D4;stroke-miterlimit:10;}
	.st59{opacity:0.25;fill:none;stroke:#84B4D4;stroke-miterlimit:10;}
	.st60{opacity:0.25;fill:none;stroke:#85B4D4;stroke-miterlimit:10;}
	.st61{opacity:0.25;fill:none;stroke:#86B4D4;stroke-miterlimit:10;}
	.st62{opacity:0.25;fill:none;stroke:#87B4D4;stroke-miterlimit:10;}
	.st63{opacity:0.25;fill:none;stroke:#87B4D3;stroke-miterlimit:10;}
	.st64{opacity:0.25;fill:none;stroke:#87B5D3;stroke-miterlimit:10;}
	.st65{opacity:0.25;fill:none;stroke:#88B5D3;stroke-miterlimit:10;}
	.st66{opacity:0.25;fill:none;stroke:#89B5D3;stroke-miterlimit:10;}
	.st67{opacity:0.25;fill:none;stroke:#8AB5D3;stroke-miterlimit:10;}
	.st68{opacity:0.25;fill:none;stroke:#8AB6D3;stroke-miterlimit:10;}
	.st69{opacity:0.25;fill:none;stroke:#8BB6D3;stroke-miterlimit:10;}
	.st70{opacity:0.25;fill:none;stroke:#8BB6D2;stroke-miterlimit:10;}
	.st71{opacity:0.25;fill:none;stroke:#8CB6D2;stroke-miterlimit:10;}
	.st72{opacity:0.25;fill:none;stroke:#8DB6D2;stroke-miterlimit:10;}
	.st73{opacity:0.25;fill:none;stroke:#8DB7D2;stroke-miterlimit:10;}
	.st74{clip-path:url(#SVGID_2_);}
	.st75{fill:#FFFFFF;}
</style>
<g>
	<defs>
		<rect id="SVGID_1_" y="0" width="482" height="342"/>
	</defs>
	<clipPath id="SVGID_2_">
		<use xlink:href="#SVGID_1_"  style="overflow:visible;"/>
	</clipPath>
	<rect class="st0" width="482" height="342"/>
	<g class="st1">
		<path class="st2" d="M-418.4,57.3c0,0,62-121.5,233.5-92.9S51-114.3-20.5-138.1s-21.4-88.2,78.6-85.8"/>
		<path class="st3" d="M62.6-222c-19.1-0.4-36.3,1.7-51.2,5.6c-1.2,0.3-2.4,0.7-3.6,1c-35.9,10.3-57,30.9-55.3,49.8
			c1.1,11.9,11.4,23.2,33,30.6c29.1,10,35.1,34.1,20.1,57c-9.1,13.8-25.9,27.2-50,36.6c-7.3,2.9-15.2,5.4-23.8,7.4
			c-10.3,2.4-21.4,4.3-33.5,5.4c-23.3,2.1-49.9,1.3-79.8-3.3c-10.7-1.7-21.1-2.8-31-3.4c-25-1.6-47.7-0.3-67.6,3.8
			c-10.9,2.2-20.4,4.9-29.4,8.1c-2.3,0.8-4.7,1.7-6.9,2.6C-338.3-12.2-356-0.9-370,10.5c-2.4,2-4.7,3.9-6.9,5.9
			c-26.4,23.6-37.7,46-37.3,46.1"/>
		<path class="st3" d="M67.1-220.2c-18.7-0.4-35.5,1.8-50.1,5.7c-1.2,0.3-2.4,0.7-3.6,1c-35.2,10.4-55.9,31.2-54.3,50.4
			c1,12,11.1,23.5,32.4,31C20.2-121.9,26-97.8,10.6-74.9C1.2-61-15.7-47.6-39.9-38.2c-7.4,2.9-15.4,5.4-24,7.3
			c-10.4,2.4-21.6,4.3-33.8,5.4c-23.4,2.1-50.1,1.6-80.4-2.9c-10.8-1.6-21.2-2.6-31.2-3.2c-25.1-1.4-48.3-0.4-68.1,3.9
			c-11.2,2.4-20.5,5.1-29.4,8.3c-2.3,0.8-4.6,1.8-6.9,2.7c-21.8,9-39.5,20.4-53.2,32.1c-2.4,2-4.6,4-6.7,6
			c-26,23.7-37,46.1-36.3,46.3"/>
		<path class="st4" d="M71.7-218.3c-18.2-0.3-34.8,1.9-49,5.9c-1.2,0.3-2.4,0.7-3.5,1.1c-34.5,10.6-54.9,31.5-53.4,50.9
			c1,12.2,10.9,23.7,31.8,31.4c28.3,10.4,33.7,34.5,18,57.4C6.1-57.7-11.1-44.3-35.4-34.9c-7.5,2.9-15.5,5.3-24.2,7.3
			c-10.4,2.3-21.7,4.3-34.1,5.5c-23.6,2.1-50.4,1.8-80.9-2.4c-10.8-1.5-21.3-2.5-31.4-2.9c-25.1-1.2-48.8-0.5-68.7,4.1
			c-11.5,2.7-20.5,5.3-29.3,8.6c-2.3,0.8-4.5,1.8-6.8,2.8c-21.8,9.3-39.4,21-52.9,32.7c-2.3,2-4.5,4-6.6,6
			c-25.5,23.9-36.4,46.1-35.4,46.4"/>
		<path class="st4" d="M76.2-216.4c-17.8-0.3-34,2-47.9,6c-1.1,0.3-2.3,0.7-3.4,1.1C-9-198.5-29-177.6-27.6-157.8
			c0.9,12.3,10.6,24,31.2,31.8c27.9,10.6,33,34.7,17,57.6C10.9-54.4-6.5-41-31-31.7c-7.6,2.9-15.7,5.3-24.4,7.2
			c-10.5,2.3-21.8,4.3-34.3,5.5c-23.8,2.1-50.7,2-81.5-1.9c-10.9-1.4-21.4-2.3-31.6-2.7c-25.2-1-49.3-0.6-69.2,4.2
			c-11.9,2.9-20.6,5.4-29.3,8.8c-2.2,0.9-4.5,1.9-6.7,2.9c-21.7,9.6-39.3,21.5-52.6,33.4c-2.3,2-4.4,4.1-6.5,6.1
			c-25.1,24.1-35.7,46.2-34.4,46.6"/>
		<path class="st5" d="M80.7-214.6c-17.4-0.3-33.2,2.1-46.8,6.2c-1.1,0.3-2.3,0.8-3.4,1.1c-33.1,10.9-52.9,32.1-51.5,52.1
			c0.8,12.4,10.4,24.3,30.6,32.2c27.4,10.7,32.3,34.9,16,57.8c-10,14-27.5,27.5-52.2,36.7c-7.7,2.9-15.8,5.3-24.6,7.2
			c-10.6,2.2-22,4.3-34.6,5.5c-23.9,2.2-51,2.2-82.1-1.5c-10.9-1.3-21.5-2.1-31.8-2.5c-25.2-0.9-49.8-0.7-69.7,4.3
			c-12.2,3.1-20.7,5.6-29.2,9c-2.2,0.9-4.4,2-6.7,3c-21.7,9.9-39.2,22-52.3,34.1c-2.2,2-4.3,4.1-6.3,6.2
			c-24.6,24.2-35.1,46.2-33.4,46.7"/>
		<path class="st5" d="M85.2-212.7c-17-0.2-32.5,2.2-45.7,6.3c-1.1,0.3-2.2,0.8-3.3,1.1c-32.4,11.1-51.8,32.4-50.6,52.7
			c0.8,12.5,10.1,24.5,30,32.6c27,10.9,31.6,35.1,15,58.1C20.5-47.8,2.7-34.4-22.1-25.2c-7.8,2.9-16,5.3-24.8,7.1
			c-10.7,2.2-22.1,4.3-34.9,5.5c-24.1,2.2-51.2,2.5-82.6-1c-11-1.2-21.6-1.9-32-2.2c-25.3-0.7-50.3-0.8-70.2,4.4
			c-12.6,3.3-20.8,5.8-29.2,9.3c-2.2,0.9-4.4,2-6.6,3.1c-21.6,10.2-39.1,22.5-52,34.8c-2.2,2.1-4.2,4.2-6.2,6.2
			C-384.8,66.4-395,88.2-393,88.8"/>
		<path class="st6" d="M89.7-210.8c-16.6-0.2-31.7,2.2-44.6,6.5c-1.1,0.4-2.2,0.8-3.2,1.2c-31.7,11.3-50.8,32.7-49.6,53.3
			c0.7,12.6,9.8,24.8,29.4,33c26.6,11.1,30.9,35.3,14,58.3C25.3-44.5,7.3-31.1-17.6-21.9c-7.8,2.9-16.2,5.3-25,7
			c-10.8,2.2-22.3,4.3-35.2,5.5c-24.3,2.2-51.5,2.7-83.2-0.6c-11-1.1-21.8-1.8-32.2-2c-25.4-0.5-50.8-0.9-70.8,4.5
			c-12.9,3.5-20.8,6-29.1,9.5c-2.1,0.9-4.3,2.1-6.5,3.2c-21.6,10.4-39,23-51.7,35.5c-2.1,2.1-4.1,4.2-6.1,6.3
			c-23.7,24.6-33.8,46.3-31.4,47"/>
		<path class="st6" d="M94.2-209c-16.1-0.2-30.9,2.3-43.5,6.6c-1,0.4-2.1,0.8-3.2,1.2c-31,11.4-49.8,33-48.7,53.9
			c0.6,12.7,9.6,25.1,28.8,33.4c26.2,11.3,30.1,35.5,13,58.5C30.1-41.2,11.9-27.7-13.2-18.6c-7.9,2.9-16.3,5.3-25.2,7
			c-10.9,2.1-22.4,4.3-35.4,5.5c-24.4,2.2-51.8,2.9-83.7-0.1c-11.1-1-21.9-1.6-32.4-1.8c-25.4-0.4-51.3-1-71.3,4.7
			c-13.3,3.7-20.9,6.2-29.1,9.7c-2.1,0.9-4.3,2.2-6.5,3.3c-21.6,10.7-38.9,23.5-51.3,36.2c-2.1,2.1-4,4.3-6,6.4
			c-23.3,24.7-33.1,46.4-30.4,47.2"/>
		<path class="st7" d="M98.7-207.1c-15.7-0.1-30.2,2.4-42.4,6.8c-1,0.4-2.1,0.9-3.1,1.2c-30.3,11.6-48.7,33.3-47.8,54.5
			c0.6,12.8,9.3,25.3,28.3,33.7c25.8,11.5,29.4,35.7,12,58.7C34.8-37.9,16.5-24.4-8.7-15.4c-8,2.9-16.5,5.2-25.4,6.9
			c-11,2.1-22.5,4.3-35.7,5.6c-24.6,2.3-52,3.1-84.3,0.3c-11.2-1-22-1.4-32.6-1.5c-25.5-0.2-51.8-1-71.8,4.8c-13.6,4-21,6.4-29,10
			c-2.1,0.9-4.2,2.2-6.4,3.3c-21.5,11-38.8,24.1-51,36.9c-2,2.1-3.9,4.3-5.8,6.4c-22.8,24.9-32.5,46.4-29.4,47.4"/>
		<path class="st7" d="M103.2-205.3c-15.3-0.1-29.4,2.5-41.3,6.9c-1,0.4-2.1,0.9-3,1.3c-29.6,11.8-47.7,33.6-46.8,55.1
			c0.5,12.9,9.1,25.6,27.7,34.1c25.3,11.6,28.7,36,10.9,59c-11,14.3-29.6,27.8-54.9,36.8c-8.1,2.9-16.6,5.2-25.6,6.9
			c-11.1,2-22.7,4.3-36,5.6c-24.7,2.3-52.3,3.3-84.8,0.8c-11.2-0.9-22.1-1.3-32.8-1.3c-25.5,0-52.3-1.1-72.3,4.9
			c-14,4.2-21,6.6-29,10.2c-2,0.9-4.2,2.3-6.4,3.4c-21.5,11.3-38.7,24.6-50.7,37.5c-2,2.2-3.8,4.4-5.7,6.5
			c-22.4,25-31.8,46.5-28.4,47.5"/>
		<path class="st8" d="M107.7-203.4c-14.9,0-28.6,2.6-40.2,7.1c-1,0.4-2,0.9-2.9,1.3c-28.9,12-46.7,33.9-45.9,55.6
			c0.5,13,8.8,25.8,27.1,34.5c24.9,11.8,28,36.2,9.9,59.2C44.4-31.3,25.7-17.8,0.2-8.9C-8-6-16.6-3.7-25.6-2.1
			c-11.2,2-22.8,4.3-36.2,5.6c-24.9,2.3-52.6,3.5-85.4,1.3c-11.2-0.8-22.2-1.1-33-1c-25.6,0.1-52.8-1.2-72.9,5
			c-14.3,4.4-21.1,6.7-29,10.4c-2,0.9-4.1,2.3-6.3,3.5c-21.4,11.6-38.7,25.1-50.4,38.2c-1.9,2.2-3.7,4.4-5.6,6.6
			c-21.9,25.1-31.2,46.5-27.4,47.7"/>
		<path class="st8" d="M112.2-201.5c-14.5,0-27.8,2.7-39.1,7.3c-0.9,0.4-2,0.9-2.9,1.3c-28.2,12.1-45.6,34.2-45,56.2
			c0.4,13.2,8.5,26.1,26.5,34.9c24.5,12,27.2,36.4,8.9,59.4C49.2-28,30.3-14.5,4.7-5.6c-8.3,2.9-16.9,5.2-26.1,6.7
			c-11.3,1.9-23,4.3-36.5,5.6c-25.1,2.3-52.8,3.7-86,1.7c-11.3-0.7-22.3-0.9-33.2-0.8c-25.6,0.3-53.3-1.2-73.4,5.1
			c-14.7,4.6-21.2,6.9-28.9,10.7c-2,0.9-4,2.4-6.2,3.6C-307,39-324.1,52.6-335.7,66c-1.9,2.2-3.6,4.5-5.4,6.6
			c-21.5,25.3-30.5,46.6-26.4,47.8"/>
		<path class="st9" d="M116.7-199.7c-14,0-27.1,2.8-38,7.4c-0.9,0.4-1.9,0.9-2.8,1.3c-27.5,12.3-44.6,34.5-44,56.8
			c0.3,13.3,8.3,26.4,25.9,35.3c24.1,12.2,26.5,36.6,7.9,59.6C54-24.7,34.9-11.2,9.1-2.3C0.7,0.5-8,2.8-17.1,4.3
			C-28.5,6.2-40.3,8.7-53.9,10c-25.2,2.4-53.1,3.9-86.5,2.2c-11.3-0.6-22.4-0.7-33.4-0.6c-25.7,0.4-53.8-1.3-73.9,5.3
			c-15,4.9-21.3,7.1-28.9,10.9c-1.9,1-4,2.5-6.2,3.7c-21.4,12.2-38.5,26.1-49.8,39.6c-1.9,2.2-3.5,4.5-5.3,6.7
			c-21,25.4-29.9,46.6-25.4,48"/>
		<path class="st9" d="M121.2-197.8c-13.6,0.1-26.3,2.9-36.9,7.6c-0.9,0.4-1.9,1-2.7,1.4c-26.8,12.5-43.5,34.8-43.1,57.4
			c0.3,13.4,8,26.6,25.3,35.7C87.5-83.4,89.6-59,70.7-35.9C58.8-21.4,39.5-7.9,13.6,0.9C5.1,3.8-3.7,6.1-12.9,7.5
			c-11.5,1.8-23.3,4.3-37,5.6c-25.4,2.4-53.4,4.1-87.1,2.6c-11.4-0.5-22.6-0.6-33.6-0.3c-25.8,0.6-54.3-1.3-74.5,5.4
			c-15.4,5.1-21.4,7.3-28.8,11.1c-1.9,1-3.9,2.5-6.1,3.8c-21.3,12.5-38.4,26.6-49.5,40.3c-1.8,2.2-3.4,4.6-5.2,6.8
			c-20.5,25.5-29.2,46.7-24.4,48.1"/>
		<path class="st10" d="M125.7-196c-13.2,0.1-25.5,2.9-35.8,7.7c-0.8,0.4-1.9,1-2.7,1.4c-26.1,12.7-42.5,35.1-42.1,58
			c0.2,13.5,7.7,26.9,24.7,36.1c23.2,12.5,25.1,37,5.9,60.1C63.6-18.1,44.1-4.6,18,4.2C9.4,7.1,0.6,9.3-8.6,10.7
			C-20.2,12.5-32,15.1-46,16.4c-25.6,2.4-53.6,4.3-87.6,3.1c-11.4-0.4-22.7-0.4-33.8-0.1c-25.8,0.8-54.8-1.3-75,5.5
			c-15.7,5.3-21.4,7.5-28.8,11.4c-1.9,1-3.9,2.6-6,3.9c-21.3,12.8-38.3,27.1-49.2,41c-1.8,2.3-3.3,4.6-5,6.8
			c-20.1,25.7-28.6,46.7-23.4,48.3"/>
		<path class="st10" d="M130.2-194.1c-12.8,0.2-24.8,3-34.7,7.9c-0.8,0.4-1.8,1-2.6,1.4c-25.3,12.8-41.5,35.4-41.2,58.6
			c0.2,13.6,7.5,27.2,24.2,36.5c22.8,12.7,24.3,37.2,4.8,60.3C68.4-14.8,48.7-1.3,22.5,7.4c-8.7,2.9-17.6,5.1-26.9,6.5
			c-11.7,1.7-23.5,4.3-37.6,5.7c-25.7,2.4-53.9,4.5-88.2,3.5c-11.5-0.3-22.8-0.2-34,0.2c-25.9,0.9-55.3-1.4-75.5,5.6
			c-16.1,5.5-21.5,7.7-28.7,11.6c-1.8,1-3.8,2.6-6,4c-21.2,13.1-38.2,27.6-48.9,41.7c-1.7,2.3-3.2,4.7-4.9,6.9
			c-19.6,25.8-27.9,46.8-22.4,48.4"/>
		<path class="st11" d="M134.7-192.2c-12.4,0.2-24,3.1-33.6,8c-0.8,0.4-1.8,1-2.5,1.4c-24.6,13-40.4,35.7-40.3,59.2
			c0.1,13.7,7.2,27.4,23.6,36.9c22.3,12.9,23.6,37.4,3.8,60.5C73.2-11.5,53.3,2,27,10.7c-8.8,2.9-17.7,5.1-27.1,6.4
			c-11.8,1.7-23.7,4.3-37.9,5.7c-25.9,2.5-54.2,4.8-88.7,4c-11.5-0.2-22.9-0.1-34.2,0.4c-25.9,1.1-55.8-1.4-76,5.7
			c-16.4,5.8-21.6,7.9-28.7,11.8c-1.8,1-3.8,2.7-5.9,4.1c-21.2,13.4-38.1,28.1-48.6,42.3c-1.7,2.3-3.1,4.7-4.8,6.9
			c-19.2,25.9-27.3,46.9-21.4,48.6"/>
		<path class="st12" d="M139.3-190.4c-11.9,0.2-23.2,3.2-32.5,8.2c-0.8,0.4-1.7,1.1-2.5,1.5c-23.9,13.2-39.4,36-39.3,59.8
			c0,13.8,6.9,27.7,23,37.3c21.9,13.1,22.9,37.6,2.8,60.7C78-8.2,57.9,5.3,31.4,14c-8.9,2.9-17.9,5.1-27.3,6.4
			C-7.7,22-19.7,24.7-34,26c-26.1,2.5-54.4,5-89.3,4.5c-11.6-0.2-23,0.1-34.4,0.6c-26,1.2-56.3-1.4-76.6,5.8
			c-16.8,6-21.7,8-28.6,12.1c-1.8,1-3.7,2.8-5.8,4.1c-21.1,13.7-38.1,28.6-48.3,43c-1.6,2.3-3,4.7-4.6,7
			c-18.7,26-26.6,46.9-20.4,48.7"/>
		<path class="st12" d="M143.8-188.5c-11.5,0.3-22.5,3.3-31.4,8.3c-0.7,0.4-1.7,1.1-2.4,1.5c-23.2,13.4-38.4,36.3-38.4,60.4
			c0,13.9,6.7,28,22.4,37.7c21.5,13.3,22.2,37.8,1.8,60.9C82.8-4.9,62.5,8.6,35.9,17.2c-9,2.9-18.1,5.1-27.5,6.3
			c-11.9,1.6-24,4.3-38.4,5.7c-26.2,2.5-54.7,5.2-89.9,4.9c-11.6-0.1-23.1,0.3-34.6,0.9c-26,1.4-56.8-1.5-77.1,6
			c-17.1,6.3-21.8,8.2-28.6,12.3c-1.7,1-3.7,2.8-5.8,4.2c-21.1,14-38,29.1-47.9,43.7c-1.6,2.3-2.9,4.8-4.5,7.1
			c-18.3,26.1-26,47-19.4,48.9"/>
		<path class="st13" d="M148.3-186.6c-11.1,0.3-21.7,3.4-30.3,8.5c-0.7,0.4-1.6,1.1-2.3,1.5c-22.4,13.5-37.3,36.6-37.4,60.9
			c-0.1,14,6.4,28.2,21.8,38.1c21,13.4,21.4,38,0.8,61.2c-13.2,14.8-33.6,28.4-60.4,37c-9.1,2.9-18.2,5.1-27.7,6.3
			c-12,1.5-24.1,4.3-38.7,5.7c-26.4,2.5-55,5.4-90.4,5.4c-11.7,0-23.2,0.4-34.8,1.1c-26.1,1.5-57.2-1.5-77.6,6.1
			c-17.5,6.5-21.8,8.4-28.5,12.5c-1.7,1-3.6,2.9-5.7,4.3c-21,14.3-37.9,29.6-47.6,44.4c-1.5,2.4-2.8,4.8-4.4,7.1
			c-17.8,26.2-25.3,47-18.4,49"/>
		<path class="st13" d="M152.8-184.8c-10.7,0.4-20.9,3.5-29.2,8.6c-0.7,0.4-1.6,1.1-2.3,1.6c-21.7,13.7-36.3,36.9-36.5,61.5
			c-0.1,14.1,6.1,28.5,21.2,38.4c20.6,13.6,20.7,38.2-0.2,61.4c-13.4,14.9-34,28.5-61,37c-9.2,2.9-18.4,5-27.9,6.2
			c-12.1,1.5-24.3,4.3-38.9,5.8c-26.5,2.6-55.2,5.6-91,5.8c-11.7,0.1-23.3,0.6-35,1.4c-26.1,1.7-57.7-1.5-78.1,6.2
			c-17.8,6.7-21.9,8.6-28.5,12.8c-1.7,1.1-3.5,2.9-5.6,4.4c-21,14.6-37.8,30.1-47.3,45.1c-1.5,2.4-2.7,4.9-4.3,7.2
			c-17.4,26.3-24.7,47.1-17.4,49.2"/>
		<path class="st14" d="M157.3-182.9c-10.3,0.4-20.2,3.6-28.1,8.8c-0.7,0.4-1.5,1.2-2.2,1.6c-20.9,13.9-35.2,37.2-35.6,62.1
			c-0.2,14.3,5.9,28.7,20.6,38.8c20.2,13.8,20,38.4-1.2,61.6C97.1,4.9,76.3,18.5,49.2,27c-9.3,2.9-18.5,5-28.1,6.1
			c-12.2,1.4-24.4,4.3-39.2,5.8c-26.7,2.6-55.5,5.8-91.5,6.3c-11.8,0.2-23.5,0.8-35.2,1.6c-26.2,1.8-58.2-1.5-78.7,6.3
			c-18.2,7-22,8.8-28.4,13c-1.6,1.1-3.5,3-5.6,4.5c-20.9,14.9-37.7,30.6-47,45.8c-1.5,2.4-2.6,4.9-4.1,7.3
			c-16.9,26.4-24,47.1-16.4,49.3"/>
		<path class="st14" d="M161.8-181.1c-9.8,0.4-19.4,3.7-27,8.9c-0.6,0.4-1.5,1.2-2.1,1.6C112.4-156.4,98.4-133,98-107.8
			c-0.2,14.4,5.6,29,20,39.2c19.7,14,19.2,38.6-2.3,61.8c-13.9,15-34.9,28.6-62.1,37c-9.3,2.9-18.7,5-28.3,6.1
			C13,37.7,0.8,40.6-14.1,42.1c-26.9,2.6-55.7,5.9-92.1,6.8c-11.8,0.3-23.6,0.9-35.4,1.8c-26.2,2-58.7-1.5-79.2,6.4
			c-18.5,7.2-22.1,9-28.4,13.2c-1.6,1.1-3.4,3.1-5.5,4.6c-20.9,15.2-37.7,31.1-46.7,46.5c-1.4,2.4-2.5,5-4,7.3
			c-16.5,26.5-23.4,47.2-15.4,49.5"/>
		<path class="st15" d="M166.3-179.2c-9.4,0.5-18.6,3.8-25.9,9.1c-0.6,0.4-1.5,1.2-2.1,1.6c-19.4,14.3-33.2,37.8-33.7,63.3
			c-0.3,14.5,5.3,29.3,19.5,39.6c19.3,14.1,18.5,38.8-3.3,62.1c-14.1,15-35.3,28.6-62.7,37c-9.4,2.9-18.9,5-28.6,6
			c-12.4,1.3-24.7,4.3-39.7,5.8c-27,2.6-56,6.1-92.7,7.2c-11.9,0.3-23.7,1.1-35.6,2.1c-26.3,2.1-59.2-1.6-79.7,6.6
			c-18.9,7.5-22.2,9.2-28.3,13.5c-1.6,1.1-3.4,3.1-5.4,4.7c-20.8,15.5-37.6,31.6-46.4,47.1c-1.4,2.4-2.4,5-3.9,7.4
			c-16,26.6-22.7,47.2-14.4,49.6"/>
		<path class="st16" d="M170.8-177.3c-9,0.5-17.9,3.8-24.8,9.2c-0.6,0.4-1.4,1.2-2,1.7c-18.7,14.4-32.1,38.1-32.7,63.9
			c-0.4,14.6,5,29.5,18.9,40c18.9,14.3,17.8,39-4.3,62.3c-14.3,15.1-35.7,28.7-63.2,37c-9.5,2.9-19,5-28.8,6C21.3,44,9,47-6.2,48.6
			c-27.2,2.7-56.3,6.3-93.2,7.7c-11.9,0.4-23.8,1.3-35.8,2.3c-26.3,2.3-59.7-1.6-80.3,6.7c-19.2,7.7-22.3,9.4-28.3,13.7
			c-1.5,1.1-3.3,3.2-5.4,4.8c-20.8,15.8-37.5,32.1-46.1,47.8c-1.3,2.4-2.3,5-3.7,7.5c-15.6,26.6-22.1,47.3-13.4,49.8"/>
		<path class="st16" d="M175.3-175.5c-8.6,0.5-17.1,3.9-23.7,9.4c-0.5,0.5-1.4,1.3-1.9,1.7c-17.9,14.6-31.1,38.4-31.8,64.5
			c-0.4,14.7,4.8,29.8,18.3,40.4C154.6-45,153.2-20.3,130.8,3c-14.5,15.1-36.1,28.7-63.8,37c-9.6,2.9-19.2,4.9-29,5.9
			c-12.6,1.2-25,4.3-40.3,5.8c-27.4,2.7-56.5,6.5-93.8,8.1c-12,0.5-23.9,1.4-36,2.5c-26.4,2.4-60.2-1.6-80.8,6.8
			c-19.6,8-22.4,9.6-28.2,13.9c-1.5,1.1-3.2,3.2-5.3,4.8c-20.7,16.1-37.4,32.6-45.8,48.5c-1.3,2.5-2.2,5.1-3.6,7.5
			c-15.1,26.7-21.4,47.3-12.4,50"/>
		<path class="st17" d="M179.8-173.6c-8.2,0.6-16.3,4-22.6,9.6c-0.5,0.5-1.3,1.3-1.8,1.7c-17.2,14.8-30,38.7-30.9,65.1
			c-0.5,14.8,4.5,30,17.7,40.8c18,14.6,16.3,39.4-6.3,62.7C121.1,21.4,99.3,35,71.5,43.3c-9.7,2.9-19.3,4.9-29.2,5.8
			C29.6,50.3,17.2,53.4,1.8,55c-27.5,2.7-56.8,6.7-94.3,8.6c-12,0.6-24,1.6-36.2,2.8c-26.4,2.6-60.7-1.6-81.3,6.9
			c-19.9,8.2-22.4,9.8-28.2,14.2c-1.5,1.1-3.2,3.3-5.2,4.9c-20.6,16.4-37.4,33.1-45.5,49.2c-1.3,2.5-2.1,5.1-3.5,7.6
			c-14.7,26.8-20.8,47.4-11.5,50.1"/>
		<path class="st17" d="M184.3-171.7c-7.7,0.6-15.6,4.1-21.5,9.7c-0.5,0.5-1.3,1.3-1.8,1.8c-16.4,15-29,39-29.9,65.7
			c-0.5,14.9,4.2,30.3,17.1,41.2c17.5,14.8,15.6,39.6-7.3,62.9c-15,15.2-36.9,28.8-64.9,37.1c-9.8,2.9-19.5,4.9-29.4,5.8
			c-12.8,1.1-25.3,4.3-40.8,5.9c-27.7,2.7-57,6.9-94.9,9c-12.1,0.7-24.1,1.8-36.4,3c-26.5,2.7-61.2-1.6-81.8,7
			c-20.3,8.5-21.8,11.1-28.1,14.4c-1.2,1.4-3.1,3.4-5.2,5c-20.6,16.7-37.3,33.6-45.2,49.9c-1.2,2.5-2,5.2-3.3,7.7
			c-14.2,26.8-20.1,47.4-10.5,50.3"/>
		<path class="st18" d="M188.8-169.9c-7.3,0.7-14.8,4.2-20.4,9.9c-0.5,0.5-1.2,1.3-1.7,1.8c-15.6,15.1-27.9,39.3-29,66.2
			c-0.6,15,3.9,30.5,16.5,41.6c17.1,15,14.9,39.8-8.4,63.2C130.7,28,108.5,41.6,80.4,49.8c-9.9,2.9-19.6,4.9-29.6,5.7
			c-12.9,1.1-25.4,4.3-41.1,5.9c-27.9,2.8-57.3,7.1-95.4,9.5c-12.1,0.8-24.2,1.9-36.6,3.3c-26.5,2.9-61.7-1.6-82.4,7.2
			c-20.6,8.7-21.9,11.3-28.1,14.6c-1.2,1.4-3.1,3.4-5.1,5.1c-20.5,17-37.2,34.1-44.9,50.6c-1.2,2.5-1.9,5.2-3.2,7.7
			c-13.8,26.9-19.5,47.5-9.5,50.4"/>
		<path class="st18" d="M193.3-168c-6.9,0.7-14,4.3-19.3,10c-0.4,0.5-1.2,1.3-1.6,1.8c-14.8,15.3-26.9,39.6-28,66.8
			c-0.6,15.1,3.6,30.8,15.9,42c16.6,15.1,14.1,40-9.4,63.4c-15.4,15.3-37.7,29-66,37.1c-10,2.9-19.8,4.9-29.8,5.6
			c-13,1-25.5,4.3-41.4,5.9c-28,2.8-57.6,7.3-96,10c-12.2,0.8-24.4,2.1-36.8,3.5c-26.6,3-62.1-1.6-82.9,7.3
			c-20.9,9-21.9,11.5-28,14.9c-1.2,1.4-3,3.5-5,5.2c-20.5,17.3-37.2,34.6-44.5,51.2c-1.1,2.5-1.8,5.2-3.1,7.8
			c-13.4,26.9-18.8,47.5-8.5,50.6"/>
		<path class="st19" d="M197.8-166.2c-6.5,0.7-13.3,4.4-18.3,10.2c-0.4,0.5-1.1,1.4-1.6,1.8c-14,15.4-25.9,40-27.1,67.4
			c-0.7,15.2,3.4,31,15.4,42.4c16.2,15.3,13.4,40.2-10.4,63.6c-15.6,15.4-38.1,29-66.5,37.1c-10.1,2.9-20,4.8-30,5.6
			c-13.1,1-25.7,4.3-41.6,5.9c-28.2,2.8-57.8,7.5-96.6,10.4c-12.2,0.9-24.5,2.3-37,3.7c-26.7,3.2-62.6-1.6-83.4,7.4
			c-21.3,9.2-22,11.7-28,15.1c-1.1,1.5-3,3.5-5,5.3c-20.4,17.6-37.1,35.1-44.2,51.9c-1.1,2.6-1.7,5.3-3,7.9
			c-12.9,27-18.2,47.6-7.5,50.7"/>
		<path class="st19" d="M202.3-164.3c-6.1,0.8-12.5,4.5-17.2,10.3c-0.4,0.5-1.1,1.4-1.5,1.9c-13.3,15.6-24.8,40.3-26.2,68
			c-0.8,15.4,3.1,31.3,14.8,42.7C188-25.9,184.9-1,160.9,22.5C145,37.9,122.3,51.5,93.8,59.6c-10.2,2.9-20.1,4.8-30.2,5.5
			c-13.2,0.9-25.8,4.3-41.9,5.9c-28.3,2.8-58.1,7.7-97.1,10.9c-12.3,1-24.6,2.4-37.2,4c-26.7,3.3-63.1-1.6-83.9,7.5
			c-21.6,9.5-22,12-27.9,15.3c-1.1,1.5-2.9,3.6-4.9,5.4c-20.4,17.9-37.1,35.6-43.9,52.6c-1,2.6-1.6,5.3-2.8,7.9
			c-12.5,27-17.5,47.6-6.5,50.9"/>
		<path class="st20" d="M206.9-162.4c-5.7,0.8-11.7,4.6-16.1,10.5c-0.4,0.5-1.1,1.4-1.4,1.9c-12.5,15.7-23.8,40.6-25.2,68.6
			c-0.8,15.5,2.8,31.5,14.2,43.1c15.3,15.6,11.9,40.6-12.4,64c-16.1,15.5-38.9,29.1-67.6,37.2C88,65.7,78,67.7,67.8,68.3
			c-13.3,0.9-26,4.3-42.2,6C-2.8,77.2-32.7,82.2-72,85.6c-12.3,1.1-24.7,2.6-37.4,4.2c-26.8,3.4-63.6-1.6-84.5,7.6
			c-22,9.7-22.1,12.2-27.9,15.6c-1,1.5-2.8,3.7-4.9,5.5c-20.3,18.2-37,36.1-43.6,53.3c-1,2.6-1.5,5.3-2.7,8
			c-12.1,27.1-16.9,47.7-5.5,51"/>
		<path class="st21" d="M211.4-160.6c-5.2,0.9-11,4.7-15,10.6c-0.3,0.5-1,1.4-1.4,1.9c-11.7,15.9-22.7,40.9-24.3,69.2
			c-0.9,15.6,2.5,31.8,13.6,43.5c14.9,15.8,11.2,40.8-13.4,64.3c-16.3,15.5-39.4,29.2-68.2,37.2c-10.4,2.9-20.4,4.8-30.6,5.4
			c-13.4,0.8-26.1,4.3-42.4,6C1,80.4-29,85.6-68.6,89.3c-12.4,1.2-24.8,2.8-37.6,4.5c-26.8,3.6-64.1-1.6-85,7.8
			c-22.3,10-22.1,12.4-27.8,15.8c-1,1.5-2.8,3.7-4.8,5.6c-20.2,18.5-36.9,36.6-43.3,54c-1,2.6-1.4,5.4-2.6,8.1
			c-11.7,27.1-16.2,47.7-4.5,51.2"/>
		<path class="st22" d="M215.9-158.7c-4.8,0.9-10.2,4.8-13.9,10.8c-0.3,0.5-1,1.5-1.3,1.9c-10.9,16-21.7,41.2-23.4,69.8
			c-0.9,15.7,2.2,32,13,43.9c14.4,15.9,10.5,41-14.4,64.5c-16.5,15.6-39.8,29.2-68.7,37.2c-10.5,2.9-20.6,4.8-30.8,5.3
			c-13.5,0.8-26.2,4.3-42.7,6C4.8,83.6-25.2,89-65.2,93c-12.4,1.2-24.9,2.9-37.8,4.7c-26.9,3.7-64.6-1.6-85.5,7.9
			c-22.7,10.2-22.2,12.6-27.8,16c-0.9,1.6-2.7,3.8-4.7,5.6c-20.2,18.8-36.8,37.1-43,54.7c-0.9,2.6-1.3,5.4-2.4,8.1
			c-11.2,27.2-15.6,47.8-3.5,51.3"/>
		<path class="st23" d="M220.4-156.8c-4.4,0.9-9.4,4.9-12.8,10.9c-0.3,0.5-0.9,1.5-1.2,2c-10.1,16.1-20.6,41.5-22.4,70.4
			c-1,15.8,1.9,32.3,12.4,44.3c14,16.1,9.7,41.2-15.5,64.7c-16.7,15.6-40.2,29.3-69.3,37.2c-10.6,2.9-20.8,4.7-31.1,5.3
			c-13.6,0.7-26.4,4.3-43,6c-29,2.9-59.1,8.4-99.3,12.7c-12.5,1.3-25,3.1-38,4.9c-26.9,3.9-65.1-1.6-86.1,8
			c-23,10.5-22.2,12.9-27.7,16.3c-0.9,1.6-2.7,3.8-4.7,5.7c-20.1,19.1-36.8,37.6-42.7,55.4c-0.9,2.7-1.2,5.5-2.3,8.2
			c-10.8,27.2-14.9,47.8-2.5,51.5"/>
		<path class="st23" d="M224.9-155c-4,1-8.7,5-11.7,11.1c-0.3,0.5-0.9,1.5-1.2,2c-9.2,16.2-19.6,41.8-21.5,70.9
			c-1,15.9,1.7,32.5,11.8,44.7c13.5,16.2,9,41.4-16.5,64.9c-17,15.7-40.6,29.3-69.8,37.2c-10.7,2.9-20.9,4.7-31.3,5.2
			c-13.7,0.7-26.5,4.3-43.2,6c-29.2,3-59.4,8.6-99.9,13.2c-12.5,1.4-25.1,3.2-38.2,5.2c-27,4-65.5-1.6-86.6,8.1
			c-23.4,10.8-22.3,13.1-27.7,16.5c-0.9,1.6-2.6,3.9-4.6,5.8c-20,19.4-36.7,38.1-42.4,56c-0.8,2.7-1.1,5.5-2.2,8.3
			c-10.4,27.2-14.3,47.9-1.5,51.6"/>
		<path class="st23" d="M229.4-153.1c-3.6,1-7.9,5.1-10.6,11.2c-0.2,0.5-0.8,1.5-1.1,2c-8.4,16.3-18.5,42.1-20.5,71.5
			c-1.1,16,1.4,32.7,11.2,45.1c13.1,16.4,8.3,41.6-17.5,65.1c-17.2,15.7-41,29.4-70.4,37.2c-10.8,2.9-21.1,4.7-31.5,5.2
			c-13.8,0.6-26.7,4.3-43.5,6c-29.3,3-59.6,8.8-100.5,13.6c-12.5,1.5-25.2,3.4-38.4,5.4c-27,4.1-66-1.6-87.1,8.2
			c-23.7,11-22.3,13.3-27.6,16.7c-0.8,1.6-2.6,4-4.5,5.9c-20,19.7-36.7,38.6-42.1,56.7c-0.8,2.7-1,5.5-2,8.3
			c-10,27.2-13.6,47.9-0.5,51.8"/>
		<path class="st24" d="M233.9-151.3c-3.1,1.1-7.1,5.2-9.5,11.4c-0.2,0.5-0.8,1.5-1,2.1c-7.7,16.4-17.5,42.4-19.6,72.1
			c-1.1,16.1,1.1,33,10.7,45.5c12.6,16.5,7.5,41.8-18.5,65.4c-17.4,15.8-41.4,29.4-70.9,37.3c-10.9,2.9-21.2,4.7-31.7,5.1
			c-13.8,0.6-26.8,4.3-43.8,6.1c-29.5,3-59.9,9-101,14.1c-12.6,1.6-25.4,3.6-38.6,5.7c-27.1,4.3-66.5-1.6-87.6,8.3
			c-24,11.3-22.4,13.6-27.6,17c-0.8,1.6-2.5,4-4.5,6c-19.9,20-36.6,39.1-41.8,57.4c-0.8,2.7-0.9,5.6-1.9,8.4
			c-9.6,27.2-12.9,48,0.5,51.9"/>
		<path class="st24" d="M238.4-149.4c-2.7,1.1-6.4,5.3-8.4,11.6c-0.2,0.5-0.7,1.6-1,2.1c-6.9,16.5-16.5,42.7-18.7,72.7
			c-1.2,16.2,0.8,33.2,10.1,45.9c12.2,16.6,6.8,42-19.5,65.6c-17.6,15.8-41.8,29.5-71.5,37.3c-11,2.9-21.4,4.7-31.9,5
			c-13.9,0.5-27,4.3-44.1,6.1c-29.7,3-60.2,9.2-101.6,14.5c-12.6,1.6-25.5,3.7-38.8,5.9c-27.1,4.4-67-1.6-88.2,8.5
			c-24.4,11.5-22.5,13.8-27.5,17.2c-0.7,1.7-2.4,4.1-4.4,6.1c-19.9,20.3-36.6,39.6-41.5,58.1c-0.7,2.7-0.8,5.6-1.8,8.5
			c-9.2,27.3-12.3,48,1.5,52.1"/>
		<path class="st25" d="M242.9-147.5c-2.3,1.1-5.6,5.4-7.3,11.7c-0.1,0.5-0.7,1.6-0.9,2.1c-6.1,16.5-15.4,43-17.7,73.3
			c-1.2,16.4,0.5,33.4,9.5,46.3c11.7,16.8,6,42.2-20.5,65.8c-17.8,15.9-42.2,29.5-72,37.3c-11,2.9-21.6,4.6-32.1,5
			c-14,0.5-27.1,4.3-44.3,6.1c-29.8,3.1-60.4,9.3-102.1,15c-12.7,1.7-25.6,3.9-39,6.1c-27.2,4.5-67.5-1.6-88.7,8.6
			c-24.7,11.8-22.5,14-27.5,17.4c-0.7,1.7-2.4,4.1-4.3,6.2c-19.8,20.6-36.5,40.1-41.1,58.8c-0.7,2.8-1.2,5.5-1.7,8.5
			c-13.4,25.3-11.6,48.1,2.5,52.3"/>
		<path class="st25" d="M247.4-145.7c-1.9,1.2-4.8,5.5-6.2,11.9c-0.1,0.5-0.6,1.6-0.8,2.1c-5.3,16.6-14.4,43.3-16.8,73.9
			c-1.3,16.5,0.2,33.7,8.9,46.7c11.3,16.9,5.3,42.4-21.6,66c-18.1,15.9-42.6,29.6-72.6,37.3c-11.1,2.9-21.7,4.6-32.3,4.9
			c-14.1,0.4-27.2,4.3-44.6,6.1c-30,3.1-60.7,9.5-102.7,15.5c-12.7,1.8-25.7,4-39.2,6.4c-27.2,4.7-68-1.5-89.2,8.7
			c-25.1,12.1-22.6,14.2-27.4,17.7c-0.7,1.7-2.3,4.2-4.3,6.3c-19.7,20.9-36.5,40.6-40.8,59.5c-0.6,2.8-1.1,5.6-1.5,8.6
			c-13.1,25.4-11,48.1,3.5,52.4"/>
		<path class="st25" d="M251.9-143.8c-1.5,1.2-4,5.6-5.1,12c-0.1,0.6-0.6,1.6-0.8,2.2c-4.5,16.6-13.3,43.6-15.8,74.5
			c-1.4,16.6,0,33.9,8.3,47.1c10.8,17.1,4.6,42.6-22.6,66.3c-18.3,16-43,29.6-73.2,37.3c-11.2,2.9-21.9,4.6-32.5,4.9
			c-14.2,0.3-27.4,4.3-44.9,6.1c-30.1,3.1-60.9,9.7-103.2,15.9c-12.8,1.9-25.8,4.2-39.4,6.6c-27.3,4.8-68.4-1.5-89.8,8.8
			c-25.4,12.3-22.6,14.5-27.4,17.9c-0.6,1.7-2.3,4.3-4.2,6.4c-19.7,21.2-36.4,41.1-40.5,60.2c-0.6,2.8-1.1,5.6-1.4,8.7
			c-12.8,25.4-10.3,48.2,4.5,52.6"/>
		<path class="st26" d="M256.4-142c-1,1.2-3.3,5.7-4,12.2c-0.1,0.6-0.6,1.6-0.7,2.2c-3.8,16.6-12.3,43.9-14.9,75.1
			c-1.4,16.7-0.3,34.1,7.7,47.4c10.4,17.2,3.8,42.8-23.6,66.5c-18.5,16-43.5,29.7-73.7,37.3c-11.3,2.9-22,4.6-32.7,4.8
			c-14.3,0.3-27.5,4.3-45.1,6.1c-30.3,3.1-61.2,9.9-103.8,16.4c-12.8,2-25.9,4.4-39.6,6.8c-27.3,4.9-68.9-1.5-90.3,8.9
			c-25.7,12.6-22.7,14.7-27.3,18.1c-0.6,1.7-2.2,4.3-4.1,6.4c-19.6,21.4-36.3,41.6-40.2,60.8c-0.6,2.8-1,5.6-1.3,8.7
			c-12.5,25.5-9.7,48.3,5.5,52.7"/>
		<path class="st26" d="M260.9-140.1c-0.6,1.3-2.5,5.8-2.9,12.3c0,0.6-0.5,1.7-0.6,2.2c-3,16.6-11.2,44.2-14,75.7
			c-1.5,16.8-0.6,34.4,7.1,47.8c10,17.3,3.1,43-24.6,66.7c-18.7,16.1-43.9,29.7-74.3,37.3c-11.4,2.9-22.2,4.6-32.9,4.7
			c-14.4,0.2-27.7,4.3-45.4,6.2c-30.5,3.2-61.5,10.1-104.4,16.8c-12.9,2-26,4.5-39.8,7.1c-27.4,5.1-69.4-1.5-90.8,9.1
			c-26.1,12.9-22.7,14.9-27.3,18.4c-0.5,1.8-2.1,4.4-4.1,6.5c-19.5,21.7-36.3,42.1-39.9,61.5c-0.5,2.8-0.9,5.7-1.1,8.8
			c-12.1,25.5-9,48.3,6.5,52.9"/>
		<path class="st27" d="M265.4-138.2c-0.2,1.3-1.7,5.9-1.8,12.5c0,0.6-0.6,1.7-0.5,2.2c-5.1,16-10.2,44.5-13,76.2
			c-1.5,16.9-0.9,34.6,6.6,48.2c9.5,17.4,2.4,43.1-25.6,66.9c-19,16.1-44.3,29.8-74.8,37.4c-11.5,2.9-22.4,4.5-33.1,4.7
			c-14.5,0.2-27.8,4.3-45.7,6.2c-30.6,3.2-61.7,10.2-104.9,17.3c-12.9,2.1-26.1,4.7-40,7.3c-27.4,5.2-69.9-1.5-91.3,9.2
			c-26.4,13.2-22.8,15.1-27.2,18.6c-0.5,1.8-2.1,4.4-4,6.6c-19.5,22-36.3,42.6-39.6,62.2c-0.5,2.8-0.8,5.7-1,8.9
			c-11.8,25.5-8.4,48.4,7.5,53"/>
		<path class="st27" d="M269.9-136.4c0.2,1.4-0.9,6-0.7,12.6c0,0.6-0.5,1.7-0.5,2.3c-4.5,16.1-9.1,44.8-12.1,76.8
			c-1.6,17-1.2,34.8,6,48.6c9.1,17.6,1.6,43.3-26.6,67.1c-19.2,16.1-44.7,29.8-75.4,37.4c-11.6,2.9-22.5,4.5-33.3,4.6
			c-14.6,0.1-28,4.3-45.9,6.2c-30.8,3.2-62,10.4-105.5,17.7c-13,2.2-26.3,4.9-40.2,7.6c-27.5,5.3-70.4-1.5-91.9,9.3
			c-26.7,13.4-22.8,15.4-27.2,18.8c-0.5,1.8-2,4.5-3.9,6.7c-19.4,22.3-36.2,43.1-39.3,62.9c-0.4,2.9-0.7,5.8-0.9,8.9
			c-11.5,25.6-7.7,48.4,8.5,53.2"/>
		<path class="st27" d="M274.5-134.5c0.6,1.4-0.2,6.1,0.4,12.8c0,0.6-0.5,1.7-0.4,2.3c-3.8,16.3-8.1,45.1-11.1,77.4
			c-1.6,17.1-1.5,35,5.4,49c8.6,17.7,0.9,43.5-27.7,67.4c-19.4,16.2-45.1,29.9-75.9,37.4c-11.7,2.9-22.7,4.5-33.5,4.6
			c-14.7,0.1-28.1,4.3-46.2,6.2c-31,3.2-62.2,10.6-106,18.2c-13,2.3-26.4,5-40.4,7.8c-27.5,5.5-70.8-1.5-92.4,9.4
			c-27.1,13.7-22.9,15.6-27.1,19.1c-0.4,1.8-2,4.6-3.9,6.8c-19.3,22.6-36.2,43.6-39,63.6c-0.4,2.9-0.6,5.8-0.7,9
			c-11.1,25.6-7.1,48.5,9.5,53.3"/>
		<path class="st28" d="M279-132.6c1.1,1.4,0.6,6.2,1.5,12.9c0.1,0.6-0.4,1.7-0.3,2.3c-3.1,16.4-7,45.4-10.2,78
			c-1.7,17.2-1.7,35.2,4.8,49.4c8.2,17.8,0.2,43.7-28.7,67.6c-19.6,16.2-45.5,29.9-76.5,37.4c-11.8,2.9-22.8,4.5-33.8,4.5
			c-14.8,0-28.2,4.3-46.5,6.2c-31.1,3.3-62.5,10.8-106.6,18.7c-13.1,2.3-26.5,5.2-40.6,8c-27.6,5.6-71.3-1.5-92.9,9.5
			c-27.4,14-22.9,15.8-27.1,19.3c-0.4,1.9-1.9,4.6-3.8,6.9c-19.3,22.9-36.1,44.1-38.7,64.3c-0.4,2.9-0.5,5.8-0.6,9.1
			c-10.8,25.7-6.4,48.5,10.5,53.5"/>
		<path class="st28" d="M283.5-130.8c1.5,1.5,1.4,6.3,2.6,13.1c0.1,0.6-0.4,1.8-0.3,2.4c-2.4,16.5-6,45.7-9.3,78.6
			c-1.7,17.4-2,35.5,4.2,49.8C288.5,31,280.1,57,251,80.9c-19.8,16.3-45.9,30-77,37.4c-11.9,2.9-23,4.4-34,4.4
			c-14.9,0-28.4,4.3-46.7,6.2c-31.3,3.3-62.8,10.9-107.2,19.1c-13.1,2.4-26.6,5.3-40.8,8.3c-27.6,5.7-71.8-1.5-93.4,9.7
			c-27.8,14.2-23,16.1-27,19.5c-0.3,1.9-1.9,4.7-3.7,7c-19.2,23.2-36.1,44.6-38.4,65c-0.3,2.9-0.5,5.9-0.5,9.1
			c-10.5,25.7-5.8,48.6,11.5,53.6"/>
		<path class="st29" d="M288-128.9c1.9,1.5,2.2,6.4,3.7,13.2c0.1,0.6-0.4,1.8-0.2,2.4c-1.7,16.6-4.9,46-8.3,79.2
			c-1.8,17.5-2.3,35.7,3.6,50.2c7.3,18-1.3,44.1-30.7,68c-20.1,16.3-46.3,30-77.6,37.4c-12,2.8-23.2,4.4-34.2,4.4
			c-15-0.1-28.5,4.3-47,6.3c-31.5,3.3-63,11.1-107.7,19.6c-13.2,2.5-26.7,5.5-41,8.5c-27.7,5.9-72.3-1.4-94,9.8
			c-28.1,14.5-23,16.3-27,19.8c-0.3,1.9-1.8,4.7-3.7,7.1c-19.1,23.5-36,45.1-38.1,65.6c-0.3,3-0.4,5.9-0.3,9.2
			c-10.2,25.8-5.1,48.6,12.4,53.8"/>
		<path class="st30" d="M292.5-127.1c2.3,1.6,3,6.5,4.8,13.4c0.2,0.6-0.3,1.8-0.1,2.4c-1,16.8-3.9,46.3-7.4,79.8
			c-1.8,17.6-2.6,35.9,3,50.6c6.9,18.1-2.1,44.3-31.7,68.2c-20.3,16.4-46.8,30.1-78.1,37.5c-12.1,2.8-23.3,4.4-34.4,4.3
			c-15.1-0.1-28.7,4.3-47.3,6.3C69.7,138.7,38,146.7-7,155.4c-13.2,2.6-26.8,5.6-41.2,8.8c-27.7,6-72.7-1.4-94.5,9.9
			c-28.4,14.8-23.1,16.5-26.9,20c-0.2,1.9-1.7,4.8-3.6,7.2c-19.1,23.8-36,45.6-37.7,66.3c-0.3,3-0.3,6-0.2,9.3
			c-9.8,25.8-4.5,48.7,13.4,53.9"/>
		<path class="st30" d="M297-125.2c2.7,1.6,3.7,6.6,5.9,13.5c0.2,0.6-0.2,1.8-0.1,2.4c2.6,16.7-2.8,46.6-6.4,80.4
			c-1.9,17.7-2.8,36.1,2.4,51c6.5,18.3-2.8,44.5-32.7,68.5c-20.5,16.4-47.2,30.1-78.7,37.5c-12.2,2.8-23.5,4.4-34.6,4.2
			c-15.2-0.2-28.8,4.3-47.6,6.3C73.5,142,41.7,150.1-3.6,159.1c-13.3,2.6-26.9,5.8-41.4,9c-27.8,6.1-73.2-1.4-95,10
			c-28.8,15.1-23.1,16.7-26.9,20.2c-0.2,1.9-1.7,4.9-3.6,7.2c-19,24.1-35.9,46.1-37.4,67c-0.2,3-0.2,6-0.1,9.3
			c-9.5,25.9-3.8,48.7,14.4,54.1"/>
		<path class="st31" d="M301.5-123.3c3.2,1.6,4.5,6.7,7,13.7c0.2,0.6-0.1,1.8,0,2.5c3.2,16.7-1.8,46.9-5.5,80.9
			c-1.9,17.8-3.1,36.3,1.9,51.4c6.1,18.4-3.5,44.7-33.7,68.7c-20.7,16.5-47.6,30.2-79.2,37.5c-12.3,2.8-23.6,4.4-34.8,4.2
			c-15.3-0.2-28.9,4.3-47.8,6.3c-31.9,3.4-63.8,11.6-109.4,20.9c-13.3,2.7-27,6-41.6,9.2c-27.9,6.3-73.7-1.4-95.6,10.1
			c-29.1,15.3-23.2,17-26.8,20.5c-0.2,2-1.6,4.9-3.5,7.3c-18.9,24.4-35.9,46.6-37.1,67.7c-0.2,3-0.1,6,0,9.4
			c-9.2,25.9-3.2,48.8,15.4,54.2"/>
		<path class="st31" d="M306-121.5c3.6,1.7,5.3,6.7,8.1,13.9c0.2,0.6-0.1,1.8,0.1,2.5c3.9,16.7-0.7,47.2-4.6,81.5
			c-2,17.9-3.4,36.5,1.3,51.8c5.6,18.5-4.3,44.9-34.8,68.9c-21,16.5-48,30.2-79.8,37.5c-12.4,2.8-23.8,4.3-35,4.1
			c-15.4-0.3-29.1,4.3-48.1,6.3c-32.1,3.4-64.1,11.8-109.9,21.4c-13.4,2.8-27.2,6.1-41.8,9.5c-27.9,6.4-74.2-1.4-96.1,10.3
			c-29.4,15.6-23.2,17.2-26.8,20.7c-0.1,2-1.6,5-3.4,7.4c-18.9,24.6-35.8,47.1-36.8,68.4c-0.1,3,0,6.1,0.2,9.5
			c-8.9,26-2.5,48.8,16.4,54.4"/>
		<path class="st31" d="M310.5-119.6c4,1.7,6.1,6.8,9.2,14c0.3,0.6,0,1.8,0.1,2.5c4.5,16.8,0.3,47.5-3.6,82.1
			c-2.1,18-3.6,36.7,0.7,52.1c5.2,18.6-5,45.1-35.8,69.1c-21.2,16.6-48.4,30.3-80.3,37.5c-12.5,2.8-24,4.3-35.2,4.1
			c-15.5-0.3-29.2,4.3-48.4,6.3c-32.3,3.4-64.3,12-110.5,21.9c-13.4,2.9-27.3,6.3-42,9.7c-28,6.5-74.7-1.4-96.6,10.4
			c-29.8,15.9-23.3,17.4-26.7,21c-0.1,2-1.5,5-3.4,7.5c-18.8,24.9-35.8,47.6-36.5,69.1c-0.1,3.1,0.1,6.1,0.3,9.5
			c-8.5,26-1.9,48.9,17.4,54.5"/>
		<path class="st32" d="M315-117.7c4.4,1.8,6.9,6.9,10.3,14.2c0.3,0.6,0,1.9,0.2,2.6c5.2,16.8,1.4,47.8-2.7,82.7
			c-2.1,18.1-3.9,36.9,0.1,52.5c4.8,18.7-5.7,45.3-36.8,69.4c-21.4,16.6-48.8,30.3-80.9,37.5c-12.6,2.8-24.1,4.3-35.4,4
			c-15.6-0.4-29.4,4.3-48.6,6.4c-32.4,3.5-64.6,12.1-111.1,22.3c-13.5,2.9-27.4,6.4-42.2,10c-28,6.6-75.1-1.3-97.1,10.5
			c-30.1,16.2-23.4,17.6-26.7,21.2c0,2-1.4,5.1-3.3,7.6c-18.7,25.2-35.8,48.2-36.2,69.7c-0.1,3.1,0.1,6.2,0.4,9.6
			c-8.2,26.1-1.2,48.9,18.4,54.7"/>
		<path class="st33" d="M319.5-115.9c4.8,1.8,7.6,7,11.4,14.3c0.3,0.6,0,1.9,0.3,2.6c5.8,16.8,2.4,48.1-1.8,83.3
			c-2.2,18.2-4.2,37.2-0.5,52.9c4.4,18.8-6.5,45.5-37.8,69.6c-21.6,16.7-49.2,30.4-81.4,37.6c-12.7,2.8-24.3,4.3-35.6,3.9
			c-15.7-0.5-29.5,4.3-48.9,6.4c-32.6,3.5-64.9,12.3-111.6,22.8c-13.5,3-27.5,6.6-42.4,10.2c-28.1,6.8-75.6-1.3-97.7,10.6
			c-30.4,16.5-23.4,17.9-26.6,21.4c0,2-1.4,5.2-3.2,7.7c-18.6,25.5-35.7,48.7-35.9,70.4c0,3.1,0.2,6.2,0.6,9.7
			c-7.9,26.1-0.6,49,19.4,54.9"/>
		<path class="st34" d="M324-114c5.2,1.8,8.4,7.1,12.5,14.5c0.4,0.6,0.1,1.9,0.3,2.6c6.4,16.9,3.5,48.4-0.8,83.9
			c-2.2,18.3-4.4,37.4-1.1,53.3c4,18.9-7.2,45.7-38.8,69.8c-21.9,16.7-49.6,30.4-82,37.6c-12.8,2.8-24.4,4.2-35.8,3.9
			c-15.8-0.5-29.7,4.3-49.2,6.4C96.4,161.4,64,170.4,17,181.2c-13.5,3.1-27.6,6.7-42.6,10.4c-28.1,6.9-76.1-1.3-98.2,10.7
			c-30.7,16.7-23.5,18.1-26.6,21.7c0,2.1-1.3,5.2-3.2,7.8c-18.6,25.8-35.7,49.2-35.6,71.1c0,3.1,0.3,6.2,0.7,9.7
			c-7.6,26.2,0.1,49,20.4,55"/>
		<path class="st34" d="M328.5-112.2c5.7,1.9,9.2,7.2,13.6,14.6c0.4,0.6,0.1,1.9,0.4,2.6c7.1,16.9,4.5,48.8,0.1,84.5
			c-2.3,18.5-4.7,37.6-1.7,53.7c3.6,19-8,45.9-39.8,70c-22.1,16.7-50,30.5-82.5,37.6c-12.9,2.8-24.6,4.2-36,3.8
			c-15.9-0.6-29.8,4.3-49.4,6.4c-32.9,3.5-65.4,12.6-112.7,23.7c-13.6,3.2-27.7,6.9-42.8,10.7c-28.2,7-76.6-1.3-98.7,10.8
			c-31.1,17-23.5,18.3-26.5,21.9c0.1,2.1-1.3,5.3-3.1,7.9c-18.5,26.1-35.6,49.7-35.3,71.8c0.1,3.1,0.4,6.3,0.8,9.8
			c-7.2,26.2,0.7,49.1,21.4,55.2"/>
		<path class="st34" d="M333-110.3c6.1,1.9,10,7.3,14.6,14.8c0.4,0.7,0.2,1.9,0.5,2.7c7.7,17,5.6,49.1,1.1,85.1
			c-2.3,18.6-4.9,37.8-2.3,54.1c3.2,19.1-8.7,46-40.9,70.2c-22.3,16.8-50.5,30.5-83.1,37.6c-13,2.8-24.8,4.2-36.2,3.8
			c-16-0.6-29.9,4.3-49.7,6.4c-33.1,3.6-65.6,12.8-113.3,24.2c-13.6,3.2-27.8,7.1-43,10.9c-28.2,7.2-77-1.3-99.2,11
			c-31.4,17.3-23.6,18.5-26.5,22.1c0.1,2.1-1.2,5.3-3,7.9c-18.4,26.4-35.6,50.2-35,72.5c0.1,3.2,0.5,6.3,1,9.9
			c-6.9,26.2,1.4,49.1,22.4,55.3"/>
		<path class="st35" d="M337.5-108.4c6.5,1.9,10.7,7.4,15.7,14.9c0.4,0.7,0.2,2,0.6,2.7c8.3,17,6.6,49.4,2,85.7
			c-2.4,18.7-5.2,38-2.8,54.5c2.7,19.2-9.4,46.2-41.9,70.5c-22.5,16.8-50.9,30.5-83.6,37.6c-13,2.8-24.9,4.2-36.5,3.7
			c-16.1-0.7-30.1,4.3-50,6.5c-33.3,3.6-65.9,13-113.8,24.6c-13.7,3.3-27.9,7.2-43.2,11.1c-28.3,7.3-77.5-1.3-99.8,11.1
			c-31.7,17.6-23.6,18.8-26.4,22.4c0.2,2.1-1.1,5.4-3,8c-18.4,26.6-35.5,50.7-34.7,73.2c0.1,3.2,0.6,6.4,1.1,9.9
			c-6.6,26.3,2,49.2,23.4,55.5"/>
		<path class="st35" d="M342.1-106.6c6.9,2,11.5,7.5,16.8,15.1c0.5,0.7,0.2,2,0.6,2.7c8.9,17.1,7.7,49.7,2.9,86.2
			C360,16.3,357,35.7,359,52.4c2.3,19.3-10.2,46.4-42.9,70.7c-22.8,16.9-51.3,30.6-84.2,37.6c-13.1,2.8-25.1,4.2-36.7,3.6
			c-16.2-0.7-30.2,4.3-50.3,6.5c-33.4,3.6-66.2,13.1-114.4,25.1c-13.7,3.4-28.1,7.4-43.4,11.4c-28.3,7.4-78-1.2-100.3,11.2
			c-32.1,17.9-23.7,19-26.4,22.6c0.2,2.1-1.1,5.5-2.9,8.1c-18.3,26.9-35.5,51.2-34.3,73.9c0.2,3.2,0.7,6.4,1.2,10
			c-6.2,26.3,2.7,49.2,24.4,55.6"/>
		<path class="st35" d="M346.6-104.7c7.3,2,12.3,7.6,17.9,15.2c0.5,0.7,0.3,2,0.7,2.7c9.5,17.2,8.7,50,3.9,86.8
			c-2.5,18.9-5.7,38.4-4,55.3c1.9,19.4-10.9,46.6-43.9,70.9c-23,16.9-51.7,30.6-84.8,37.6c-13.2,2.8-25.2,4.1-36.9,3.6
			c-16.3-0.8-30.4,4.3-50.5,6.5c-33.6,3.6-66.4,13.3-115,25.5c-13.8,3.5-28.2,7.5-43.6,11.6c-28.4,7.5-78.5-1.2-100.8,11.3
			c-32.4,18.2-23.7,19.2-26.3,22.8c0.2,2.2-1,5.5-2.8,8.2c-18.2,27.2-35.5,51.7-34,74.5c0.2,3.2,0.7,6.4,1.3,10.1
			c-5.9,26.4,3.3,49.3,25.4,55.8"/>
		<path class="st36" d="M351.1-102.8c7.8,2.1,13.1,7.6,19,15.4c0.5,0.7,0.3,2,0.8,2.8c10.2,17.3,9.8,50.3,4.8,87.4
			c-2.5,19-5.9,38.6-4.6,55.7c1.5,19.5-11.7,46.8-44.9,71.1c-23.2,17-52.1,30.7-85.3,37.7c-13.3,2.8-25.4,4.1-37.1,3.5
			c-16.4-0.8-30.5,4.3-50.8,6.5c-33.7,3.7-66.7,13.5-115.5,26c-13.8,3.5-28.3,7.7-43.8,11.9c-28.4,7.7-78.9-1.2-101.4,11.4
			c-32.7,18.4-23.8,19.5-26.3,23.1c0.3,2.2-1,5.6-2.8,8.3c-18.2,27.5-35.4,52.3-33.7,75.2c0.2,3.2,0.8,6.5,1.5,10.1
			c-5.6,26.4,4,49.3,26.4,55.9"/>
		<path class="st36" d="M355.6-101c8.2,2.1,13.8,7.7,20.1,15.5c0.5,0.7,0.4,2,0.8,2.8c10.8,17.3,10.8,50.6,5.8,88
			c-2.6,19.1-6.2,38.8-5.2,56.1c1.1,19.6-12.4,47-45.9,71.3c-23.4,17-52.5,30.7-85.9,37.7c-13.4,2.8-25.6,4.1-37.3,3.5
			c-16.5-0.9-30.7,4.3-51.1,6.5c-33.9,3.7-67,13.6-116.1,26.4c-13.9,3.6-28.4,7.8-44,12.1c-28.5,7.8-79.4-1.2-101.9,11.6
			c-33,18.7-23.8,19.7-26.2,23.3c0.3,2.2-0.9,5.6-2.7,8.4c-18.1,27.8-35.4,52.8-33.4,75.9c0.3,3.3,0.9,6.5,1.6,10.2
			c-5.3,26.5,4.6,49.4,27.4,56.1"/>
		<path class="st37" d="M360.1-99.1c8.6,2.1,14.6,7.8,21.2,15.7c0.6,0.7,0.4,2.1,0.9,2.8c11.4,17.4,11.9,50.9,6.7,88.6
			c-2.6,19.2-6.4,39-5.8,56.4c0.8,19.8-13.1,47.2-46.9,71.6c-23.7,17.1-52.9,30.8-86.4,37.7c-13.5,2.8-25.7,4.1-37.5,3.4
			c-16.6-0.9-30.8,4.3-51.3,6.5c-34.1,3.7-67.2,13.8-116.6,26.9c-13.9,3.7-28.5,8-44.2,12.3c-28.6,7.9-79.9-1.2-102.4,11.7
			c-33.4,19-23.9,19.9-26.2,23.5c0.4,2.2-0.8,5.7-2.6,8.5c-18,28.1-35.3,53.3-33.1,76.6c0.3,3.3,1,6.6,1.7,10.3
			c-4.9,26.5,5.3,49.4,28.4,56.2"/>
		<path class="st38" d="M364.6-97.3c9,2.2,15.4,7.9,22.3,15.9c0.6,0.7,0.4,2.1,1,2.9c12,17.5,13,51.2,7.6,89.2
			c-2.7,19.4-6.7,39.2-6.4,56.8c0.4,19.9-13.9,47.4-48,71.8c-23.9,17.1-53.3,30.8-87,37.7c-13.6,2.8-25.9,4-37.7,3.3
			c-16.6-1-30.9,4.3-51.6,6.6c-34.2,3.7-67.5,14-117.2,27.4c-14,3.8-28.6,8.2-44.4,12.6c-28.6,8-80.4-1.1-102.9,11.8
			c-33.7,19.3-23.9,20.1-26.1,23.8c0.4,2.3-0.8,5.8-2.6,8.6c-17.9,28.4-35.3,53.8-32.8,77.3c0.4,3.3,1.1,6.6,1.9,10.3
			c-4.6,26.6,5.9,49.5,29.4,56.4"/>
		<path class="st38" d="M369.1-95.4c9.4,2.2,16.2,8,23.4,16c0.6,0.7,0.5,2.1,1,2.9c12.7,17.6,14,51.5,8.6,89.8
			c-2.7,19.5-6.9,39.4-6.9,57.2c0,20-14.6,47.6-49,72c-24.1,17.1-53.8,30.9-87.5,37.7c-13.7,2.8-26.1,4-37.9,3.3
			c-16.7-1-31.1,4.3-51.9,6.6c-34.4,3.8-67.8,14.1-117.7,27.8c-14,3.8-28.7,8.3-44.6,12.8c-28.7,8.2-80.8-1.1-103.5,11.9
			c-34,19.6-24,20.4-26.1,24c0.4,2.3-0.7,5.8-2.5,8.7c-17.9,28.6-35.3,54.3-32.5,78c0.4,3.3,1.2,6.6,2,10.4
			c-4.3,26.6,6.6,49.5,30.4,56.5"/>
		<path class="st38" d="M373.6-93.5c9.9,2.3,17,8.1,24.5,16.2c0.7,0.7,0.5,2.1,1.1,2.9c13.3,17.7,15.1,51.8,9.5,90.4
			c-2.8,19.6-7.2,39.7-7.5,57.6c-0.4,20.1-15.3,47.8-50,72.2c-24.3,17.2-54.2,30.9-88.1,37.7c-13.8,2.8-26.2,4-38.1,3.2
			c-16.8-1.1-31.2,4.3-52.1,6.6c-34.6,3.8-68,14.3-118.3,28.3c-14.1,3.9-28.8,8.5-44.8,13.1c-28.7,8.3-81.3-1.1-104,12
			c-34.3,19.9-24,20.6-26,24.2c0.5,2.3-0.7,5.9-2.4,8.7c-17.8,28.9-35.2,54.9-32.2,78.7c0.4,3.4,1.3,6.7,2.1,10.4
			c-4,26.7,7.2,49.6,31.4,56.7"/>
		<path class="st39" d="M378.1-91.7c10.3,2.3,17.7,8.2,25.6,16.3c0.7,0.7,0.6,2.2,1.2,2.9c13.9,17.8,16.1,52.1,10.5,90.9
			c-2.8,19.7-7.4,39.9-8.1,58c-0.8,20.2-16.1,48-51,72.5c-24.6,17.2-54.6,31-88.6,37.8c-13.9,2.8-26.4,4-38.3,3.2
			c-16.9-1.2-31.4,4.3-52.4,6.6c-34.7,3.8-68.3,14.5-118.9,28.7c-14.1,4-29,8.6-45,13.3c-28.8,8.4-81.8-1.1-104.5,12.2
			c-34.7,20.2-24.1,20.8-26,24.5c0.5,2.3-0.6,5.9-2.4,8.8c-17.7,29.2-35.2,55.4-31.9,79.3c0.5,3.4,1.4,6.7,2.3,10.5
			c-3.6,26.7,7.9,49.6,32.4,56.8"/>
		<path class="st39" d="M382.6-89.8c10.7,2.3,18.5,8.3,26.7,16.5c0.7,0.7,0.6,2.2,1.2,3C425.1-52.4,427.7-18,422,21.2
			c-2.9,19.8-7.6,40.1-8.7,58.4c-1.2,20.3-16.8,48.2-52,72.7c-24.8,17.3-55,31-89.2,37.8c-14,2.8-26.5,4-38.5,3.1
			c-17-1.2-31.5,4.3-52.7,6.6c-34.9,3.8-68.5,14.6-119.4,29.2c-14.2,4.1-29.1,8.8-45.2,13.5c-28.8,8.5-82.2-1.1-105,12.3
			c-35,20.5-24.1,21-25.9,24.7c0.6,2.3-0.6,6-2.3,8.9c-17.7,29.5-35.1,55.9-31.6,80c0.5,3.4,1.4,6.8,2.4,10.6
			c-3.3,26.8,8.5,49.7,33.4,57"/>
		<path class="st39" d="M387.1-87.9c11.1,2.4,19.3,8.4,27.8,16.6c0.7,0.7,0.6,2.2,1.3,3c15.2,18,18.2,52.7,12.3,92.1
			c-2.9,19.9-7.9,40.3-9.3,58.8c-1.6,20.4-17.6,48.3-53,72.9c-25,17.3-55.4,31-89.7,37.8c-14.1,2.8-26.7,3.9-38.7,3
			c-17.1-1.3-31.7,4.3-52.9,6.6c-35,3.9-68.8,14.8-120,29.6c-14.2,4.1-29.2,8.9-45.4,13.8c-28.9,8.6-82.7-1-105.6,12.4
			c-35.3,20.8-24.2,21.3-25.9,24.9c0.6,2.4-0.5,6-2.2,9c-17.6,29.8-35.1,56.4-31.3,80.7c0.5,3.4,1.5,6.8,2.5,10.6
			c-3,26.8,9.2,49.8,34.4,57.2"/>
		<path class="st40" d="M391.6-86.1c11.5,2.4,20,8.4,28.9,16.8c0.8,0.7,0.7,2.2,1.4,3c15.8,18.2,19.2,53,13.3,92.7
			c-3,20-8.1,40.5-9.9,59.2c-2,20.5-18.3,48.5-54.1,73.1c-25.2,17.4-55.8,31.1-90.3,37.8c-14.2,2.8-26.9,3.9-38.9,3
			c-17.2-1.3-31.8,4.3-53.2,6.7c-35.2,3.9-69.1,14.9-120.5,30.1c-14.3,4.2-29.3,9.1-45.6,14c-28.9,8.8-83.2-1-106.1,12.5
			c-35.6,21-24.3,21.5-25.8,25.2c0.7,2.4-0.4,6.1-2.2,9.1c-17.5,30-35.1,56.9-31,81.4c0.6,3.5,1.6,6.8,2.6,10.7
			c-2.6,26.9,9.8,49.8,35.4,57.3"/>
		<path class="st40" d="M396.1-84.2c12,2.5,20.8,8.5,30,16.9c0.8,0.7,0.7,2.2,1.4,3.1C444-46,447.9-10.9,441.8,29.1
			c-3,20.1-8.3,40.7-10.5,59.6c-2.3,20.6-19,48.7-55.1,73.3c-25.5,17.4-56.2,31.1-90.8,37.8c-14.3,2.8-27,3.9-39.2,2.9
			c-17.3-1.4-31.9,4.3-53.5,6.7c-35.4,3.9-69.3,15.1-121.1,30.6c-14.3,4.3-29.4,9.2-45.8,14.2c-29,8.9-83.7-1-106.6,12.6
			c-36,21.3-24.3,21.7-25.8,25.4c0.7,2.4-0.4,6.2-2.1,9.2c-17.5,30.3-35,57.5-30.6,82.1c0.6,3.5,1.7,6.9,2.8,10.8
			c-2.3,26.9,10.5,49.9,36.3,57.5"/>
		<path class="st41" d="M400.6-82.4c12.4,2.5,21.6,8.6,31.1,17.1c0.8,0.7,0.8,2.3,1.5,3.1c17.1,18.4,21.3,53.6,15.2,93.9
			c-3.1,20.2-8.6,40.9-11.1,60c-2.7,20.8-19.8,48.9-56.1,73.6c-25.7,17.4-56.6,31.2-91.4,37.8c-14.4,2.8-27.2,3.9-39.4,2.9
			c-17.4-1.4-32.1,4.3-53.8,6.7c-35.5,3.9-69.6,15.3-121.6,31c-14.4,4.4-29.5,9.4-46,14.5c-29.1,9-84.1-1-107.2,12.8
			c-36.3,21.6-24.4,21.9-25.7,25.6c0.7,2.4-0.3,6.2-2.1,9.3c-17.4,30.6-35,58-30.3,82.8c0.7,3.5,1.8,6.9,2.9,10.8
			c-2,26.9,11.1,49.9,37.3,57.6"/>
		<path class="st41" d="M405.1-80.5c12.8,2.5,22.4,8.7,32.2,17.2c0.8,0.7,0.8,2.3,1.6,3.1c17.7,18.5,22.4,53.9,16.1,94.5
			c-3.2,20.3-8.8,41.2-11.6,60.4c-3.1,20.9-20.5,49.1-57.1,73.8c-25.9,17.5-57.1,31.2-91.9,37.9c-14.5,2.8-27.3,3.8-39.6,2.8
			c-17.5-1.5-32.2,4.3-54,6.7c-35.7,4-69.9,15.4-122.2,31.5c-14.4,4.4-29.6,9.5-46.2,14.7c-29.1,9.1-84.6-1-107.7,12.9
			c-36.6,21.9-24.4,22.2-25.7,25.9c0.8,2.4-0.3,6.3-2,9.4c-17.3,30.9-34.9,58.5-30,83.5c0.7,3.5,2.6,6.8,3,10.9
			c3.1,26.9,11.8,50,38.3,57.8"/>
		<path class="st41" d="M409.7-78.6c13.2,2.6,23.1,8.8,33.3,17.4c0.9,0.7,0.8,2.3,1.7,3.1C463-39.5,468-3.9,461.6,37
			c-3.2,20.5-9,41.4-12.2,60.8c-3.5,21-21.3,49.3-58.1,74c-26.1,17.5-57.5,31.3-92.5,37.9c-14.6,2.7-27.5,3.8-39.8,2.7
			c-17.6-1.5-32.4,4.3-54.3,6.7c-35.9,4-70.1,15.6-122.8,31.9c-14.5,4.5-29.8,9.7-46.4,15c-29.2,9.2-85.1-0.9-108.2,13
			c-36.9,22.2-24.5,22.4-25.6,26.1c0.8,2.5-0.2,6.3-1.9,9.5c-17.2,31.2-34.9,59-29.7,84.1c0.7,3.5,2.7,6.8,3.2,11
			c3.3,26.9,12.4,50,39.3,57.9"/>
		<path class="st42" d="M414.2-76.8c13.6,2.6,23.9,8.9,34.4,17.5c0.9,0.7,0.9,2.3,1.7,3.2c19,18.7,24.5,54.5,18,95.7
			c-3.3,20.6-9.2,41.6-12.8,61.1c-3.9,21.1-22,49.5-59.1,74.2c-26.4,17.6-57.9,31.3-93,37.9c-14.7,2.7-27.7,3.8-40,2.7
			c-17.7-1.6-32.5,4.2-54.6,6.7c-36,4-70.4,15.7-123.3,32.4c-14.5,4.6-29.9,9.8-46.6,15.2c-29.2,9.4-85.6-0.9-108.7,13.1
			c-37.2,22.5-24.5,22.6-25.6,26.3c0.9,2.5-0.1,6.4-1.9,9.5c-17.2,31.4-34.9,59.6-29.4,84.8c0.8,3.6,2.7,6.9,3.3,11
			c3.6,26.9,13.1,50.1,40.3,58.1"/>
		<path class="st42" d="M418.7-74.9c14.1,2.6,24.7,9,35.5,17.7c0.9,0.8,0.9,2.3,1.8,3.2c19.7,18.9,25.5,54.8,18.9,96.2
			c-3.3,20.7-9.5,41.8-13.4,61.5c-4.2,21.2-22.7,49.7-60.1,74.4c-26.6,17.6-58.3,31.4-93.6,37.9c-14.8,2.7-27.8,3.8-40.2,2.6
			c-17.8-1.7-32.6,4.2-54.8,6.8c-36.2,4-70.7,15.9-123.9,32.9c-14.6,4.6-30,10-46.8,15.4c-29.3,9.5-86-0.9-109.3,13.2
			c-37.6,22.8-24.6,22.9-25.5,26.6c0.9,2.5-0.1,6.5-1.8,9.6c-17.1,31.7-34.8,60.1-29.1,85.5c0.8,3.6,2.8,6.9,3.4,11.1
			c3.9,26.9,13.7,50.1,41.3,58.2"/>
		<path class="st43" d="M423.2-73.1c14.5,2.7,25.5,9.1,36.6,17.8c1,0.8,1,2.4,1.9,3.2c20.3,19,26.5,55.1,19.8,96.8
			c-3.4,20.8-9.7,42.1-14,61.9c-4.6,21.4-23.5,49.9-61.2,74.7c-26.8,17.7-58.7,31.4-94.1,37.9c-14.9,2.7-28,3.7-40.4,2.5
			c-17.9-1.7-32.8,4.2-55.1,6.8c-36.4,4.1-70.9,16.1-124.4,33.3c-14.6,4.7-30.1,10.1-47,15.7c-29.3,9.6-86.5-0.9-109.8,13.3
			c-37.9,23.1-24.6,23.1-25.5,26.8c0.9,2.5,0,6.5-1.7,9.7c-17,32-34.8,60.6-28.8,86.2c0.8,3.6,2.9,6.9,3.6,11.2
			c4.2,26.9,14.4,50.2,42.3,58.4"/>
		<path class="st44" d="M427.7-71.2c14.9,2.7,26.2,9.2,37.7,18c1,0.8,1,2.4,1.9,3.2c20.9,19.1,27.6,55.4,20.8,97.4
			c-3.4,20.9-9.9,42.3-14.6,62.3c-5,21.5-24.2,50-62.2,74.9c-27,17.7-59.1,31.4-94.7,37.9c-15,2.7-28.1,3.7-40.6,2.5
			c-18-1.8-32.9,4.2-55.4,6.8c-36.5,4.1-71.2,16.2-125,33.8C81,270.5,65.4,276,48.5,281.6c-29.4,9.7-87-0.8-110.3,13.5
			c-38.2,23.4-24.7,23.3-25.4,27c1,2.5,0,6.6-1.7,9.8c-17,32.3-34.7,61.1-28.5,86.9c0.9,3.6,3,7,3.7,11.2
			c4.4,26.9,15,50.2,43.3,58.5"/>
		<path class="st44" d="M432.2-69.3c15.3,2.8,27,9.2,38.8,18.2c1,0.8,1,2.4,2,3.3c21.6,19.2,28.6,55.8,21.7,98
			c-3.5,21-10.1,42.5-15.2,62.7c-5.4,21.6-25,50.2-63.2,75.1c-27.3,17.7-59.5,31.5-95.3,38c-15.1,2.7-28.3,3.7-40.8,2.4
			c-18.1-1.8-33.1,4.2-55.6,6.8c-36.7,4.1-71.5,16.4-125.6,34.2c-14.7,4.9-30.3,10.5-47.4,16.2c-29.4,9.8-87.4-0.8-110.9,13.6
			c-38.5,23.7-24.7,23.5-25.4,27.3c1,2.6,0.1,6.6-1.6,9.9c-16.9,32.6-34.7,61.7-28.2,87.6c0.9,3.7,3.1,7,3.8,11.3
			c4.7,26.9,15.7,50.3,44.3,58.7"/>
		<path class="st44" d="M436.7-67.5c15.7,2.8,27.8,9.3,39.9,18.3c1,0.8,1.1,2.4,2.1,3.3c22.2,19.4,29.7,56.1,22.7,98.6
			c-3.5,21.1-10.4,42.7-15.7,63.1c-5.7,21.8-25.7,50.4-64.2,75.3c-27.5,17.8-60,31.5-95.8,38c-15.1,2.7-28.5,3.7-41,2.4
			c-18.2-1.9-33.2,4.2-55.9,6.8c-36.8,4.1-71.7,16.5-126.1,34.7c-14.8,4.9-30.4,10.6-47.6,16.4c-29.5,10-87.9-0.8-111.4,13.7
			c-38.8,24-24.8,23.8-25.3,27.5c1.1,2.6,0.2,6.7-1.5,10c-16.8,32.8-34.7,62.2-27.9,88.2c1,3.7,3.2,7,4,11.4
			c5,26.9,16.3,50.3,45.3,58.8"/>
		<path class="st45" d="M441.2-65.6c16.2,2.8,28.6,9.4,41,18.5c1.1,0.8,1.1,2.5,2.1,3.3c22.9,19.5,30.7,56.4,23.6,99.2
			c-3.6,21.2-10.6,43-16.3,63.5c-6.1,21.9-26.4,50.6-65.2,75.6c-27.7,17.8-60.4,31.6-96.4,38c-15.2,2.7-28.6,3.6-41.2,2.3
			c-18.3-1.9-33.4,4.2-56.2,6.8c-37,4.2-72,16.7-126.7,35.1c-14.8,5-30.6,10.8-47.8,16.6c-29.6,10.1-88.4-0.8-111.9,13.8
			c-39.2,24.3-24.8,24-25.3,27.7c1.1,2.6,0.2,6.7-1.5,10.1c-16.7,33.1-34.6,62.7-27.6,88.9c1,3.7,3.2,7.1,4.1,11.4
			c5.2,26.9,17,50.4,46.3,59"/>
		<path class="st46" d="M445.7-63.7c16.6,2.9,29.3,9.5,42.1,18.6c1.1,0.8,1.2,2.5,2.2,3.4c23.5,19.6,31.8,56.7,24.5,99.8
			c-3.7,21.3-10.8,43.2-16.9,63.9c-6.5,22-27.2,50.8-66.2,75.8c-27.9,17.9-60.8,31.6-96.9,38c-15.3,2.7-28.8,3.6-41.4,2.2
			c-18.4-2-33.5,4.2-56.5,6.9c-37.2,4.2-72.3,16.9-127.2,35.6c-14.9,5.1-30.7,10.9-48,16.9c-29.6,10.2-88.8-0.8-112.4,13.9
			c-39.5,24.6-24.9,24.2-25.2,28c1.1,2.6,0.3,6.8-1.4,10.2c-16.7,33.4-34.6,63.3-27.2,89.6c1,3.7,3.3,7.1,4.2,11.5
			c5.5,26.9,17.6,50.4,47.3,59.1"/>
		<path class="st46" d="M450.2-61.9c17,2.9,30.1,9.6,43.2,18.8c1.1,0.8,1.2,2.5,2.3,3.4c24.2,19.7,32.8,57,25.5,100.4
			c-3.7,21.5-11,43.4-17.5,64.3c-6.9,22.1-27.9,51-67.3,76c-28.2,17.9-61.2,31.7-97.5,38c-15.4,2.7-28.9,3.6-41.6,2.2
			c-18.5-2.1-33.6,4.2-56.7,6.9c-37.3,4.2-72.6,17-127.8,36.1c-14.9,5.1-30.8,11.1-48.2,17.1c-29.7,10.3-89.3-0.7-113,14.1
			c-39.8,24.9-24.9,24.4-25.2,28.2c1.2,2.7,0.3,6.9-1.3,10.3c-16.6,33.7-34.5,63.8-26.9,90.3c1.1,3.8,3.4,7.2,4.3,11.6
			c5.8,26.9,18.3,50.5,48.3,59.3"/>
		<path class="st47" d="M454.7-60c17.4,3,30.9,9.7,44.3,18.9c1.2,0.8,1.2,2.5,2.3,3.4c24.9,19.9,34,57.3,26.4,100.9
			c-3.7,21.6-11.3,43.6-18.1,64.7c-7.2,22.3-28.7,51.2-68.3,76.2c-28.4,17.9-61.6,31.7-98,38c-15.5,2.7-29.1,3.6-41.9,2.1
			c-18.6-2.1-33.8,4.2-57,6.9c-37.5,4.2-72.8,17.2-128.3,36.5c-15,5.2-30.9,11.2-48.4,17.4c-29.7,10.4-89.8-0.7-113.5,14.2
			c-40.1,25.2-25,24.7-25.1,28.4c1.2,2.7,0.4,6.9-1.3,10.3c-16.5,34-34.5,64.3-26.6,91c1.1,3.8,3.5,7.2,4.5,11.6
			c6,26.9,18.9,50.5,49.3,59.5"/>
		<path class="st47" d="M459.2-58.2c17.8,3,31.6,9.8,45.4,19.1c1.2,0.8,1.3,2.6,2.4,3.4c25.5,20,35,57.6,27.4,101.5
			c-3.8,21.7-11.5,43.9-18.7,65.1c-7.6,22.4-29.4,51.4-69.3,76.4c-28.6,18-62,31.7-98.6,38c-15.6,2.7-29.3,3.5-42.1,2.1
			c-18.7-2.2-33.9,4.2-57.3,6.9c-37.7,4.3-73.1,17.3-128.9,37c-15,5.3-31,11.4-48.6,17.6c-29.8,10.6-90.3-0.7-114,14.3
			c-40.4,25.5-25,24.9-25.1,28.7c1.3,2.7,0.5,7-1.2,10.4c-16.5,34.2-34.4,64.8-26.3,91.7c1.2,3.8,3.6,7.2,4.6,11.7
			c6.3,26.9,19.6,50.6,50.3,59.6"/>
		<path class="st47" d="M463.7-56.3c18.2,3,32.4,9.9,46.5,19.2c1.2,0.8,1.3,2.6,2.5,3.5c26.2,20.1,36.1,57.9,28.3,102.1
			c-3.8,21.8-11.7,44.1-19.3,65.5c-8,22.5-30.1,51.6-70.3,76.7c-28.8,18-62.4,31.8-99.1,38.1c-15.7,2.7-29.4,3.5-42.3,2
			c-18.8-2.2-34.1,4.2-57.5,6.9c-37.8,4.3-73.4,17.5-129.5,37.4c-15.1,5.4-31.1,11.5-48.8,17.8c-29.8,10.7-90.7-0.7-114.5,14.4
			c-40.7,25.8-25.1,25.1-25,28.9c1.3,2.7,0.5,7-1.1,10.5c-16.4,34.5-34.4,65.4-26,92.4c1.2,3.8,3.6,7.3,4.7,11.8
			c6.6,26.9,20.3,50.6,51.3,59.8"/>
		<path class="st48" d="M468.2-54.4c18.7,3.1,33.2,10,47.6,19.4c1.2,0.8,1.4,2.6,2.5,3.5c26.8,20.3,37.1,58.2,29.2,102.7
			c-3.9,21.9-11.9,44.3-19.9,65.8c-8.4,22.7-30.9,51.7-71.3,76.9c-29.1,18.1-62.8,31.8-99.7,38.1c-15.8,2.7-29.6,3.5-42.5,1.9
			c-18.9-2.3-34.2,4.2-57.8,6.9c-38,4.3-73.6,17.6-130,37.9c-15.1,5.4-31.2,11.7-49,18.1c-29.9,10.8-91.2-0.6-115.1,14.5
			c-41.1,26.1-25.1,25.4-25,29.1c1.3,2.7,0.6,7.1-1.1,10.6C-80,405.9-98,437-89.3,464.1c1.2,3.9,3.7,7.3,4.9,11.8
			c6.8,26.9,20.9,50.7,52.3,59.9"/>
		<path class="st48" d="M472.7-52.6c19.1,3.1,34,10,48.6,19.5c1.3,0.8,1.4,2.6,2.6,3.5C551.5-9.1,562.2,29,554.2,73.8
			c-3.9,22-12.1,44.6-20.4,66.2c-8.7,22.8-31.6,51.9-72.3,77.1c-29.3,18.1-63.3,31.9-100.2,38.1c-15.9,2.7-29.7,3.5-42.7,1.9
			c-19-2.3-34.4,4.2-58.1,7c-38.2,4.3-73.9,17.8-130.6,38.3c-15.2,5.5-31.4,11.8-49.2,18.3c-30,10.9-91.7-0.6-115.6,14.7
			c-41.4,26.4-25.2,25.6-24.9,29.4c1.4,2.8,0.6,7.2-1,10.7c-16.2,35.1-34.3,66.4-25.4,93.7c1.3,3.9,3.8,7.3,5,11.9
			c7.1,27,21.6,50.7,53.3,60.1"/>
		<path class="st48" d="M477.3-50.7C496.8-47.6,512-40.6,527-31c1.3,0.8,1.4,2.6,2.7,3.6c28.1,20.5,39.2,58.8,31.1,103.9
			c-4,22.1-12.4,44.8-21,66.6c-9.1,23-32.4,52.1-73.3,77.3c-29.5,18.2-63.7,31.9-100.8,38.1c-16,2.7-29.9,3.4-42.9,1.8
			c-19.1-2.4-34.5,4.2-58.3,7c-38.3,4.4-74.2,17.9-131.1,38.8c-15.2,5.6-31.5,12-49.4,18.5c-30,11-92.1-0.6-116.1,14.8
			c-41.7,26.7-25.3,25.8-24.9,29.6c1.4,2.8,0.7,7.2-0.9,10.8c-16.2,35.3-34.3,67-25.1,94.4c1.3,3.9,3.9,7.4,5.1,12
			c7.4,27,22.2,50.8,54.3,60.2"/>
		<path class="st49" d="M481.8-48.8c19.9,3.2,35.5,10.2,50.8,19.8c1.3,0.8,1.5,2.7,2.8,3.6c28.8,20.7,40.3,59.1,32.1,104.5
			c-4,22.2-12.6,45.1-21.6,67c-9.5,23.1-33.1,52.3-74.4,77.5c-29.7,18.2-64.1,32-101.3,38.1c-16.1,2.7-30.1,3.4-43.1,1.8
			c-19.2-2.4-34.6,4.2-58.6,7c-38.5,4.4-74.4,18.1-131.7,39.3c-15.3,5.6-31.6,12.1-49.6,18.8C57,339.7-5.5,328-29.5,343.4
			c-42,27-25.3,26-24.8,29.8c1.5,2.8,0.8,7.3-0.9,10.9c-16.1,35.6-34.2,67.5-24.8,95.1c1.3,3.9,3.9,7.4,5.3,12
			c7.6,27,22.9,50.8,55.3,60.4"/>
		<path class="st50" d="M486.3-47c20.3,3.2,36.3,10.3,51.9,20c1.3,0.8,1.5,2.7,2.8,3.6C570.5-2.6,582.3,36,574,81.7
			c-4.1,22.4-12.8,45.3-22.2,67.4c-9.9,23.2-33.8,52.5-75.4,77.8c-30,18.2-64.5,32-101.9,38.1c-16.2,2.7-30.2,3.4-43.3,1.7
			c-19.3-2.5-34.8,4.2-58.9,7c-38.6,4.4-74.7,18.2-132.2,39.7c-15.3,5.7-31.7,12.3-49.8,19c-30.1,11.3-93.1-0.5-117.2,15
			c-42.3,27.3-26,26.4-24.8,30.1c1,3,0.8,7.3-0.8,11c-16,35.9-34.2,68-24.5,95.8c1.4,4,4,7.4,5.4,12.1c7.9,27,23.5,50.9,56.3,60.5"
			/>
		<path class="st50" d="M490.8-45.1c20.8,3.3,37.1,10.4,53,20.2c1.4,0.8,1.6,2.7,2.9,3.6c30.1,20.9,42.4,59.7,33.9,105.7
			c-4.1,22.5-13,45.5-22.8,67.8c-10.2,23.4-34.6,52.7-76.4,78c-30.2,18.3-64.9,32-102.4,38.2c-16.3,2.7-30.4,3.4-43.5,1.6
			c-19.4-2.6-34.9,4.2-59.1,7c-38.8,4.4-75,18.4-132.8,40.2c-15.4,5.8-31.8,12.4-50,19.3C63.4,347.8,0,335.8-24.1,351.5
			c-42.6,27.6-26,26.6-24.7,30.3c1.1,3.1,0.9,7.4-0.7,11c-16,36.2-34.1,68.6-24.2,96.5c1.4,4,4.1,7.5,5.5,12.2
			c8.1,27,24.2,50.9,57.3,60.7"/>
		<path class="st50" d="M495.3-43.3c21.2,3.3,37.8,10.5,54.1,20.3c1.4,0.8,1.6,2.7,3,3.7c30.8,21.1,43.4,60,34.9,106.2
			c-4.2,22.6-13.2,45.8-23.4,68.2c-10.6,23.5-35.3,52.9-77.4,78.2c-30.4,18.3-65.3,32.1-103,38.2c-16.4,2.7-30.5,3.4-43.7,1.6
			c-19.5-2.6-35.1,4.2-59.4,7c-39,4.5-75.3,18.6-133.4,40.6c-15.4,5.9-31.9,12.6-50.2,19.5c-30.3,11.5-94-0.5-118.2,15.3
			c-42.9,27.9-26,26.9-24.7,30.5c1.1,3.1,0.9,7.4-0.7,11.1c-15.9,36.4-34.1,69.1-23.8,97.2c1.5,4,4.2,7.5,5.6,12.2
			c8.4,27.1,24.8,51,58.3,60.8"/>
		<path class="st51" d="M499.8-41.4c21.6,3.3,38.6,10.6,55.2,20.5c1.4,0.8,1.6,2.8,3,3.7C589.5,4,602.5,43.1,593.8,89.6
			c-4.2,22.7-13.5,46-24,68.6c-11,23.7-36.1,53.1-78.4,78.4c-30.7,18.4-65.7,32.1-103.5,38.2c-16.5,2.6-30.7,3.3-43.9,1.5
			c-19.6-2.7-35.2,4.2-59.7,7.1c-39.1,4.5-75.5,18.7-133.9,41.1c-15.5,5.9-32.1,12.7-50.4,19.7c-30.3,11.6-94.5-0.5-118.8,15.4
			c-43.2,28.2-26.1,27.1-24.6,30.8c1.2,3.1,1,7.5-0.6,11.2c-15.8,36.7-34,69.6-23.5,97.8c1.5,4,4.3,7.6,5.8,12.3
			c8.7,27.1,25.5,51,59.3,61"/>
		<path class="st51" d="M504.3-39.5c22,3.4,39.4,10.7,56.3,20.6c1.5,0.9,1.7,2.8,3.1,3.7c32.1,21.3,45.5,60.6,36.7,107.4
			c-4.3,22.8-13.7,46.3-24.5,69c-11.4,23.8-36.8,53.2-79.4,78.6c-30.9,18.4-66.1,32.2-104.1,38.2c-16.6,2.6-30.9,3.3-44.1,1.5
			c-19.6-2.7-35.4,4.2-60,7.1c-39.3,4.5-75.8,18.9-134.5,41.6c-15.5,6-32.2,12.9-50.6,20c-30.4,11.7-94.9-0.5-119.3,15.5
			c-43.6,28.5-26.1,27.3-24.6,31c1.3,3.1,1,7.6-0.6,11.3c-15.8,37-34,70.1-23.2,98.5c1.5,4.1,4.3,7.6,5.9,12.4
			c8.9,27.1,26.1,51.1,60.2,61.1"/>
		<path class="st51" d="M508.8-37.7c22.4,3.4,40.1,10.8,57.4,20.8c1.5,0.9,1.7,2.8,3.2,3.7c32.8,21.5,46.6,61,37.7,108
			c-4.3,22.9-13.9,46.5-25.1,69.4c-11.7,23.9-37.5,53.4-80.5,78.9c-31.1,18.4-66.6,32.2-104.6,38.2c-16.7,2.6-31,3.3-44.3,1.4
			c-19.7-2.8-35.5,4.2-60.2,7.1c-39.5,4.5-76.1,19-135,42c-15.6,6.1-32.3,13-50.8,20.2C76,363.9,11,351.6-13.4,367.6
			c-43.9,28.8-26.1,27.6-24.5,31.2c1.3,3.1,1.1,7.6-0.5,11.4c-15.7,37.3-33.9,70.7-22.9,99.2c1.6,4.1,4.4,7.6,6,12.4
			c9.2,27.2,26.8,51.2,61.2,61.3"/>
		<path class="st52" d="M513.3-35.8c22.9,3.5,40.9,10.8,58.5,20.9c1.5,0.9,1.8,2.8,3.2,3.8c33.4,21.6,47.6,61.3,38.6,108.6
			c-4.4,23-14.1,46.7-25.7,69.8c-12.1,24.1-38.3,53.6-81.5,79.1c-31.3,18.5-67,32.2-105.2,38.2c-16.8,2.6-31.2,3.3-44.6,1.3
			c-19.8-2.8-35.6,4.2-60.5,7.1c-39.6,4.6-76.3,19.2-135.6,42.5c-15.6,6.1-32.4,13.2-51,20.5c-30.5,12-95.9-0.4-120.3,15.7
			c-44.2,29.1-26.1,27.8-24.5,31.5c1.4,3.1,1.2,7.7-0.4,11.5c-15.6,37.5-33.9,71.2-22.6,99.9c1.6,4.1,4.5,7.7,6.2,12.5
			c9.4,27.2,27.4,51.2,62.2,61.4"/>
		<path class="st52" d="M517.8-33.9c23.3,3.5,41.7,10.9,59.6,21.1c1.5,0.9,1.8,2.8,3.3,3.8c34.1,21.7,48.7,61.6,39.6,109.2
			c-4.4,23.1-14.4,47-26.3,70.2c-12.5,24.2-39,53.8-82.5,79.3c-31.6,18.5-67.4,32.3-105.7,38.3c-16.9,2.6-31.3,3.2-44.8,1.3
			c-19.9-2.9-35.8,4.2-60.8,7.1c-39.8,4.6-76.6,19.3-136.1,42.9c-15.7,6.2-32.5,13.3-51.2,20.7C82.3,371.9,16.5,359.5-8,375.7
			c-44.5,29.4-26.1,28-24.4,31.7c1.5,3.1,1.2,7.7-0.4,11.6c-15.5,37.8-33.9,71.7-22.3,100.6c1.7,4.1,4.6,7.7,6.3,12.6
			c9.7,27.2,28.1,51.3,63.2,61.6"/>
		<path class="st52" d="M522.3-32.1c23.7,3.5,42.5,11,60.7,21.2c1.6,0.9,1.8,2.9,3.4,3.8c34.8,21.9,49.8,61.9,40.5,109.8
			c-4.5,23.3-14.6,47.2-26.9,70.5c-12.9,24.4-39.8,54-83.5,79.5c-31.8,18.6-67.8,32.3-106.3,38.3c-17,2.6-31.5,3.2-45,1.2
			c-20-3-35.9,4.2-61,7.1c-40,4.6-76.9,19.5-136.7,43.4c-15.7,6.3-32.6,13.5-51.4,20.9c-30.6,12.2-96.8-0.4-121.4,16
			c-44.8,29.7-26.2,28.2-24.4,31.9c1.5,3.2,1.3,7.8-0.3,11.7c-15.5,38.1-33.8,72.3-22,101.3c1.7,4.2,4.6,7.8,6.4,12.6
			c10,27.3,28.7,51.3,64.2,61.7"/>
		<path class="st53" d="M526.8-30.2c24.1,3.6,43.2,11.1,61.8,21.4c1.6,0.9,1.9,2.9,3.4,3.9c35.4,22,50.8,62.2,41.4,110.4
			c-4.5,23.4-14.8,47.5-27.5,70.9c-13.3,24.5-40.5,54.2-84.5,79.8c-32,18.6-68.2,32.4-106.9,38.3c-17.1,2.6-31.7,3.2-45.2,1.2
			c-20.1-3-36.1,4.2-61.3,7.2c-40.1,4.6-77.2,19.6-137.3,43.8c-15.8,6.4-32.8,13.6-51.6,21.2C88.7,380,22.1,367.3-2.6,383.8
			c-45.1,30.1-26.2,28.5-24.3,32.2c1.6,3.2,1.3,7.8-0.2,11.8c-15.4,38.4-33.8,72.8-21.7,102c1.7,4.2,4.7,7.8,6.6,12.7
			c10.2,27.3,29.4,51.4,65.2,61.9"/>
		<path class="st53" d="M531.3-28.4c24.5,3.6,44,11.2,62.9,21.5c1.6,0.9,1.9,2.9,3.5,3.9c36.1,22.1,51.9,62.5,42.4,110.9
			c-4.6,23.5-15,47.7-28.1,71.3c-13.6,24.7-41.2,54.4-85.5,80c-32.2,18.6-68.6,32.4-107.4,38.3c-17.2,2.6-31.8,3.2-45.4,1.1
			c-20.2-3.1-36.2,4.2-61.6,7.2c-40.3,4.7-77.4,19.8-137.8,44.3c-15.8,6.4-32.9,13.8-51.8,21.4C91.8,384,24.8,371.3,0.1,387.8
			c-45.4,30.4-26.2,28.7-24.3,32.4c1.7,3.2,1.4,7.9-0.2,11.8c-15.3,38.6-33.7,73.3-21.4,102.6c1.8,4.2,4.8,7.8,6.7,12.8
			c10.5,27.3,30,51.4,66.2,62.1"/>
		<path class="st53" d="M535.8-26.5c25,3.7,44.8,11.3,64,21.7c1.6,0.9,2,2.9,3.6,3.9c36.8,22.3,52.9,62.8,43.3,111.5
			c-4.6,23.6-15.2,48-28.7,71.7c-14,24.8-42,54.5-86.6,80.2c-32.5,18.7-69,32.5-108,38.3c-17.3,2.6-32,3.1-45.6,1
			c-20.3-3.1-36.3,4.2-61.8,7.2c-40.4,4.7-77.7,19.9-138.4,44.8c-15.9,6.5-33,13.9-52,21.7c-30.8,12.5-98.2-0.3-123,16.3
			c-45.7,30.7-26.2,28.9-24.2,32.6c1.7,3.2,1.5,8-0.1,11.9c-15.3,38.9-33.7,73.9-21.1,103.3c1.8,4.2,4.9,7.9,6.8,12.8
			C-25,579.9-5.1,604,31.5,614.8"/>
		<path class="st54" d="M540.3-24.6c25.4,3.7,45.6,11.4,65.1,21.8c1.7,0.9,2,3,3.6,3.9c37.4,22.4,54,63.1,44.3,112.1
			c-4.7,23.7-15.5,48.2-29.2,72.1c-14.4,25-42.7,54.7-87.6,80.4c-32.7,18.7-69.4,32.5-108.5,38.3c-17.4,2.6-32.1,3.1-45.8,1
			c-20.4-3.2-36.5,4.2-62.1,7.2c-40.6,4.7-78,20.1-138.9,45.2c-15.9,6.6-33.1,14.1-52.2,21.9c-30.9,12.7-98.7-0.3-123.5,16.4
			c-46,31-26.3,29.1-24.2,32.9c1.8,3.2,1.5,8,0,12c-15.2,39.2-33.6,74.4-20.8,104c1.8,4.2,5,7.9,7,12.9c11,27.4,31.3,51.5,68.2,62.4
			"/>
		<path class="st54" d="M544.9-22.8c25.8,3.7,46.3,11.5,66.2,22c1.7,0.9,2,3,3.7,4c38.1,22.5,55,63.4,45.2,112.7
			c-4.7,23.8-15.7,48.4-29.8,72.5c-14.8,25.1-43.5,54.9-88.6,80.6c-32.9,18.8-69.9,32.5-109.1,38.3c-17.4,2.6-32.3,3.1-46,0.9
			c-20.5-3.2-36.6,4.2-62.4,7.2c-40.8,4.7-78.3,20.2-139.5,45.7c-16,6.6-33.2,14.2-52.4,22.1c-30.9,12.8-99.1-0.2-124,16.6
			c-46.3,31.3-26.3,29.3-24.1,33.1c1.8,3.2,1.6,8.1,0,12.1c-15.1,39.5-33.6,74.9-20.4,104.7c1.9,4.3,5,8,7.1,13
			c11.3,27.4,32,51.6,69.2,62.5"/>
		<path class="st54" d="M549.4-20.9c26.2,3.8,47.1,11.6,67.3,22.2c1.7,0.9,2.1,3,3.8,4c38.8,22.7,56.1,63.7,46.1,113.3
			c-4.8,23.9-15.9,48.7-30.4,72.9c-15.1,25.3-44.2,55.1-89.6,80.9c-33.1,18.8-70.3,32.6-109.6,38.4c-17.5,2.6-32.5,3.1-46.2,0.8
			c-20.6-3.3-36.8,4.2-62.6,7.2c-40.9,4.8-78.5,20.4-140.1,46.1c-16,6.7-33.3,14.4-52.6,22.4c-31,12.9-99.6-0.2-124.6,16.7
			c-46.6,31.6-26.3,29.6-24.1,33.3c1.9,3.2,1.6,8.1,0.1,12.2c-15.1,39.7-33.5,75.5-20.1,105.4c1.9,4.3,5.1,8,7.2,13
			c11.5,27.5,32.6,51.6,70.2,62.7"/>
		<path class="st55" d="M553.9-19.1c26.6,3.8,47.9,11.7,68.4,22.3c1.8,0.9,2.1,3,3.8,4c39.4,22.8,57.1,64,47.1,113.9
			c-4.8,24-16.1,48.9-31,73.3c-15.5,25.4-44.9,55.3-90.6,81.1c-33.4,18.8-70.7,32.6-110.2,38.4c-17.6,2.6-32.6,3-46.4,0.8
			c-20.7-3.4-36.9,4.2-62.9,7.3c-41.1,4.8-78.8,20.5-140.6,46.6c-16.1,6.8-33.5,14.5-52.8,22.6c-31,13-100.1-0.2-125.1,16.8
			c-47,31.9-26.3,29.8-24,33.6c2,3.2,1.7,8.2,0.2,12.3c-15,40-33.5,76-19.8,106.1c2,4.3,5.2,8,7.3,13.1
			c11.8,27.5,33.3,51.7,71.2,62.8"/>
		<path class="st55" d="M558.4-17.2c27.1,3.9,48.6,11.7,69.5,22.5c1.8,0.9,2.2,3.1,3.9,4c40.1,23,58.2,64.3,48,114.5
			c-4.9,24.1-16.4,49.2-31.6,73.7c-15.9,25.6-45.7,55.5-91.6,81.3c-33.6,18.9-71.1,32.7-110.7,38.4c-17.7,2.6-32.8,3-46.6,0.7
			c-20.8-3.4-37.1,4.2-63.2,7.3c-41.3,4.8-79.1,20.7-141.2,47c-16.1,6.9-33.6,14.7-53,22.8c-31.1,13.1-100.5-0.2-125.6,16.9
			c-47.3,32.2-26.4,30-24,33.8c2,3.2,1.8,8.3,0.2,12.4c-14.9,40.3-33.4,76.5-19.5,106.8c2,4.3,5.3,8.1,7.5,13.2
			c12,27.6,33.9,51.7,72.2,63"/>
		<path class="st55" d="M562.9-15.3c27.5,3.9,49.4,11.8,70.6,22.6c1.8,0.9,2.2,3.1,4,4.1c40.8,23.1,59.2,64.6,49,115.1
			c-4.9,24.3-16.6,49.4-32.2,74.1c-16.3,25.7-46.4,55.7-92.6,81.5c-33.8,18.9-71.5,32.7-111.3,38.4c-17.8,2.6-32.9,3-46.8,0.7
			c-20.9-3.5-37.2,4.2-63.5,7.3c-41.4,4.8-79.4,20.8-141.7,47.5c-16.2,6.9-33.7,14.8-53.2,23.1c-31.2,13.2-101-0.2-126.1,17
			c-47.6,32.5-26.4,30.2-23.9,34c2.1,3.3,1.8,8.3,0.3,12.5C-19.5,503.1-38,539.6-23.9,570c2,4.4,5.3,8.1,7.6,13.2
			C-4,610.8,18.3,635,56.9,646.3"/>
		<path class="st56" d="M567.4-13.5c27.9,3.9,50.2,11.9,71.7,22.8c1.8,0.9,2.3,3.1,4.1,4.1c41.5,23.2,60.3,64.9,49.9,115.7
			c-5,24.4-16.8,49.7-32.8,74.5c-16.7,25.9-47.2,55.8-93.7,81.7c-34,19-71.9,32.7-111.8,38.4c-17.9,2.6-33.1,3-47.1,0.6
			c-21-3.5-37.3,4.2-63.7,7.3c-41.6,4.9-79.6,21-142.3,48c-16.2,7-33.8,15-53.4,23.3c-31.2,13.4-101.5-0.1-126.7,17.2
			c-47.9,32.8-26.4,30.4-23.9,34.3c2.2,3.3,1.9,8.4,0.4,12.6c-14.8,40.8-33.3,77.6-18.9,108.1c2.1,4.4,5.4,8.2,7.7,13.3
			c12.6,27.7,35.2,51.8,74.2,63.3"/>
		<path class="st56" d="M571.9-11.6c28.3,4,51,12,72.8,22.9c1.9,0.9,2.3,3.1,4.1,4.1c42.1,23.4,61.4,65.2,50.8,116.2
			c-5.1,24.5-17,49.9-33.3,74.8c-17,26-47.9,56-94.7,82c-34.3,19-72.3,32.8-112.4,38.4c-18,2.6-33.3,2.9-47.3,0.5
			c-21.1-3.6-37.5,4.2-64,7.3c-41.8,4.9-79.9,21.1-142.8,48.4c-16.3,7.1-33.9,15.1-53.6,23.6c-31.3,13.5-101.9-0.1-127.2,17.3
			c-48.2,33.1-26.5,30.6-23.8,34.5c2.2,3.3,1.9,8.4,0.4,12.6c-14.7,41.1-33.3,78.1-18.6,108.8c2.1,4.4,5.5,8.2,7.9,13.4
			c12.8,27.7,35.9,51.9,75.2,63.4"/>
		<path class="st56" d="M576.4-9.7c28.7,4,51.7,12.1,73.9,23.1c1.9,0.9,2.3,3.1,4.2,4.2C697.3,41,716.9,83,706.2,134.3
			c-5.1,24.6-17.3,50.2-33.9,75.2c-17.4,26.2-48.6,56.2-95.7,82.2c-34.5,19-72.8,32.8-112.9,38.5c-18.1,2.5-33.4,2.9-47.5,0.5
			c-21.2-3.7-37.6,4.2-64.3,7.3c-41.9,4.9-80.2,21.3-143.4,48.9c-16.3,7.1-34,15.2-53.8,23.8c-31.3,13.6-102.4-0.1-127.7,17.4
			C-21.4,461.6,0.6,459,3.3,462.9c2.3,3.3,2,8.5,0.5,12.7c-14.6,41.4-33.2,78.7-18.3,109.5c2.2,4.4,5.6,8.2,8,13.4
			c13.1,27.8,36.5,51.9,76.2,63.6"/>
		<path class="st57" d="M580.9-7.9c29.1,4,52.5,12.2,75,23.2c1.9,0.9,2.4,3.2,4.3,4.2c43.5,23.6,63.5,65.8,52.7,117.4
			c-5.2,24.7-17.5,50.4-34.5,75.6C660.5,238.9,629,269,581.6,295c-34.7,19.1-73.2,32.9-113.5,38.5c-18.2,2.5-33.6,2.9-47.7,0.4
			c-21.3-3.7-37.8,4.2-64.5,7.4c-42.1,4.9-80.5,21.4-144,49.3c-16.4,7.2-34.2,15.4-54,24c-31.4,13.7-102.9-0.1-128.3,17.5
			C-19,465.9,3.2,463.2,6,467.1c2.3,3.3,2.1,8.5,0.6,12.8c-14.6,41.6-33.2,79.2-18,110.2c2.2,4.5,5.6,8.3,8.1,13.5
			c13.3,27.8,37.2,52,77.2,63.7"/>
		<path class="st57" d="M585.4-6c29.6,4.1,53.3,12.3,76.1,23.4c1.9,0.9,2.4,3.2,4.3,4.2c44.1,23.8,64.5,66.2,53.7,118
			c-5.2,24.8-17.7,50.7-35.1,76c-18.2,26.5-50.1,56.6-97.7,82.6c-34.9,19.1-73.6,32.9-114,38.5c-18.3,2.5-33.7,2.9-47.9,0.4
			c-21.4-3.8-37.9,4.2-64.8,7.4c-42.2,5-80.7,21.6-144.5,49.8c-16.4,7.3-34.3,15.5-54.2,24.3c-31.5,13.8-103.3,0-128.8,17.6
			c-49.1,34.1-26.5,31.3-23.7,35.2c2.4,3.3,2.1,8.6,0.6,12.9c-14.5,41.9-33.1,79.7-17.7,110.9c2.2,4.5,5.7,8.3,8.3,13.6
			c13.6,27.9,37.8,52,78.2,63.9"/>
		<path class="st57" d="M589.9-4.2c30,4.1,54,12.4,77.2,23.5c2,1,2.5,3.2,4.4,4.2c44.8,23.9,65.6,66.5,54.6,118.6
			c-5.3,24.9-17.9,50.9-35.7,76.4c-18.6,26.6-50.9,56.8-98.7,82.9c-35.2,19.2-74,32.9-114.6,38.5c-18.4,2.5-33.9,2.8-48.1,0.3
			c-21.5-3.8-38.1,4.2-65.1,7.4c-42.4,5-81,21.7-145.1,50.3c-16.5,7.3-34.4,15.7-54.4,24.5c-31.5,13.9-103.8,0-129.3,17.8
			c-49.4,34.4-26.6,31.5-23.6,35.5c2.5,3.3,2.2,8.7,0.7,13c-14.4,42.2-33.1,80.3-17.4,111.5c2.3,4.5,5.8,8.4,8.4,13.6
			c13.9,27.9,38.5,52.1,79.2,64"/>
		<path class="st57" d="M594.4-2.3c30.4,4.2,54.8,12.5,78.3,23.7c2,1,2.5,3.2,4.5,4.3c45.5,24,66.6,66.8,55.5,119.2
			c-5.3,25-18.2,51.2-36.3,76.8c-18.9,26.8-51.6,57-99.8,83.1c-35.4,19.2-74.4,33-115.1,38.5c-18.5,2.5-34.1,2.8-48.3,0.2
			c-21.6-3.9-38.2,4.2-65.3,7.4c-42.6,5-81.3,21.9-145.6,50.7c-16.6,7.4-34.5,15.8-54.6,24.8c-31.6,14-104.3,0-129.8,17.9
			c-49.7,34.7-26.6,31.7-23.6,35.7c2.5,3.3,2.2,8.7,0.8,13.1C0.6,535.5-18,573.8-2,605.3c2.3,4.5,5.9,8.4,8.5,13.7
			c14.1,28,39.1,52.1,80.2,64.2"/>
		<path class="st58" d="M598.9-0.4c30.8,4.2,55.6,12.5,79.4,23.8c2,1,2.5,3.3,4.5,4.3c46.2,24.2,67.7,67.1,56.5,119.8
			c-5.4,25.2-18.4,51.4-36.9,77.2c-19.3,27-52.3,57.1-100.8,83.3c-35.6,19.2-74.8,33-115.7,38.5c-18.6,2.5-34.2,2.8-48.5,0.2
			c-21.7-3.9-38.3,4.2-65.6,7.4c-42.7,5-81.6,22-146.2,51.2c-16.6,7.5-34.6,16-54.8,25c-31.7,14.2-104.7,0-130.4,18
			c-50,35-26.6,31.9-23.5,35.9c2.6,3.3,2.3,8.8,0.8,13.2c-14.3,42.7-33,81.3-16.7,112.9c2.4,4.6,5.9,8.5,8.6,13.8
			c14.4,28.1,39.8,52.2,81.2,64.4"/>
		<path class="st58" d="M603.4,1.4c31.2,4.2,56.4,12.6,80.5,24c2.1,1,2.6,3.3,4.6,4.3c46.8,24.3,68.7,67.4,57.4,120.4
			c-5.4,25.3-18.6,51.7-37.5,77.6c-19.7,27.1-53.1,57.3-101.8,83.5c-35.9,19.3-75.2,33.1-116.2,38.6c-18.7,2.5-34.4,2.8-48.7,0.1
			c-21.8-4-38.5,4.2-65.9,7.4c-42.9,5.1-81.8,22.2-146.7,51.6c-16.7,7.6-34.8,16.1-55,25.2c-31.7,14.3-105.2,0.1-130.9,18.1
			c-50.3,35.3-26.7,32.1-23.5,36.2c2.6,3.3,2.4,8.8,0.9,13.3c-14.2,43-32.9,81.9-16.4,113.6c2.4,4.6,6,8.5,8.8,13.8
			c14.6,28.1,40.4,52.2,82.2,64.5"/>
		<path class="st59" d="M607.9,3.3c31.7,4.3,57.1,12.7,81.5,24.1c2.1,1,2.6,3.3,4.7,4.4c47.5,24.4,69.8,67.7,58.3,121
			c-5.5,25.4-18.8,51.9-38,78c-20.1,27.3-53.8,57.5-102.8,83.7c-36.1,19.3-75.6,33.1-116.8,38.6c-18.8,2.5-34.5,2.7-48.9,0.1
			c-21.9-4.1-38.6,4.2-66.2,7.5c-43.1,5.1-82.1,22.3-147.3,52.1c-16.7,7.6-34.9,16.3-55.2,25.5c-31.8,14.4-105.7,0.1-131.4,18.2
			c-50.6,35.6-26.7,32.3-23.4,36.4c2.7,3.3,2.4,8.9,0.9,13.4C9.3,549.3-9.5,588.5,7.3,620.4c2.4,4.6,6.1,8.6,8.9,13.9
			c14.9,28.2,41.1,52.3,83.2,64.7"/>
		<path class="st60" d="M612.5,5.2c32.1,4.3,57.9,12.8,82.6,24.3c2.1,1,2.7,3.3,4.7,4.4c48.2,24.6,70.9,68,59.3,121.5
			c-5.5,25.5-19.1,52.2-38.6,78.4c-20.5,27.4-54.6,57.7-103.8,84c-36.3,19.4-76.1,33.1-117.3,38.6c-18.9,2.5-34.7,2.7-49.1,0
			c-22-4.1-38.8,4.2-66.4,7.5c-43.2,5.1-82.4,22.5-147.9,52.5c-16.8,7.7-35,16.4-55.4,25.7c-31.8,14.5-106.1,0.1-132,18.3
			c-50.9,36-26.7,32.5-23.4,36.6c2.7,3.3,2.5,8.9,1,13.4c-14.1,43.5-32.8,83-15.8,115c2.5,4.6,6.2,8.6,9,13.9
			c15.2,28.2,41.7,52.3,84.1,64.8"/>
		<path class="st60" d="M617,7c32.5,4.4,58.7,12.9,83.7,24.5c2.1,1,2.7,3.3,4.8,4.4c48.9,24.7,71.9,68.3,60.2,122.1
			c-5.6,25.6-19.3,52.4-39.2,78.8c-20.9,27.6-55.3,57.8-104.8,84.2c-36.6,19.3-76.5,33.2-117.9,38.6c-19,2.5-34.9,2.7-49.3-0.1
			c-22.1-4.2-38.9,4.2-66.7,7.5c-43.4,5.1-82.7,22.6-148.4,53c-16.8,7.8-35.1,16.6-55.6,26c-31.9,14.6-106.6,0.1-132.5,18.5
			C0.1,500.7,24.5,497.1,28,501.3c2.8,3.3,2.5,9,1.1,13.5c-14,43.8-32.8,83.5-15.5,115.7c2.5,4.7,6.2,8.6,9.2,14
			c15.4,28.3,42.4,52.4,85.1,65"/>
		<path class="st60" d="M621.5,8.9c32.9,4.4,59.5,13,84.8,24.6c2.2,1,2.7,3.4,4.9,4.4c49.5,24.9,73,68.6,61.2,122.7
			c-5.6,25.7-19.5,52.7-39.8,79.2c-21.2,27.7-56.1,58-105.8,84.4c-36.8,19.4-76.9,33.2-118.5,38.6c-19.1,2.5-35,2.6-49.5-0.1
			c-22.2-4.2-39,4.2-67,7.5c-43.6,5.2-82.9,22.7-149,53.5c-16.9,7.8-35.2,16.7-55.8,26.2c-32,14.7-107.1,0.2-133,18.6
			C2.5,505,27.2,501.4,30.7,505.5c2.9,3.4,2.6,9.1,1.1,13.6c-14,44.1-32.7,84-15.2,116.3c2.6,4.7,6.3,8.7,9.3,14.1
			c15.7,28.4,43,52.4,86.1,65.1"/>
		<path class="st61" d="M626,10.7c33.3,4.4,60.2,13.1,85.9,24.8c2.2,1,2.8,3.4,4.9,4.5c50.2,25,74,68.9,62.1,123.3
			c-5.7,25.8-19.8,52.9-40.4,79.5c-21.6,27.9-56.8,58.2-106.9,84.6c-37,19.4-77.3,33.3-119,38.6c-19.2,2.5-35.2,2.6-49.8-0.2
			c-22.3-4.3-39.2,4.2-67.2,7.5c-43.7,5.2-83.2,22.9-149.5,53.9c-16.9,7.9-35.3,16.9-56,26.4c-32,14.8-107.5,0.2-133.5,18.7
			c-51.8,36.9-26.8,33.1-23.2,37.3c2.9,3.4,2.6,9.1,1.2,13.7c-13.9,44.3-32.7,84.6-14.9,117c2.6,4.7,6.4,8.7,9.4,14.1
			c15.9,28.4,43.7,52.5,87.1,65.3"/>
		<path class="st61" d="M630.5,12.6c33.8,4.5,61,13.2,87,24.9c2.2,1,2.8,3.4,5,4.5c50.9,25.1,75.1,69.2,63,123.9
			c-5.7,25.9-20,53.2-41,79.9c-22,28-57.6,58.4-107.9,84.8c-37.2,19.5-77.7,33.3-119.6,38.6c-19.3,2.5-35.3,2.6-50-0.2
			c-22.4-4.3-39.3,4.2-67.5,7.6c-43.9,5.2-83.5,23-150.1,54.4c-17,8-35.5,17-56.2,26.7c-32.1,15-108,0.2-134.1,18.8
			c-52.1,37.2-26.9,33.4-23.2,37.6c3,3.4,2.7,9.2,1.3,13.8c-13.8,44.6-32.6,85.1-14.6,117.7c2.6,4.7,6.5,8.8,9.6,14.2
			c16.2,28.5,44.3,52.5,88.1,65.4"/>
		<path class="st61" d="M635,14.5c34.2,4.5,61.8,13.3,88.1,25.1c2.2,1,2.9,3.4,5.1,4.5c51.5,25.3,76.1,69.5,64,124.5
			c-5.8,26.1-20.2,53.4-41.6,80.3c-22.4,28.2-58.3,58.6-108.9,85.1c-37.5,19.5-78.1,33.3-120.1,38.7c-19.4,2.5-35.5,2.6-50.2-0.3
			c-22.4-4.4-39.5,4.2-67.8,7.6c-44,5.2-83.8,23.2-150.6,54.8c-17,8.1-35.6,17.2-56.4,26.9c-32.2,15.1-108.5,0.2-134.6,18.9
			c-52.4,37.5-26.9,33.6-23.1,37.8c3,3.4,2.8,9.2,1.3,13.9C26.5,577.1,7.7,617.8,26,650.6c2.7,4.8,6.5,8.8,9.7,14.3
			c16.5,28.6,45,52.6,89.1,65.6"/>
		<path class="st62" d="M639.5,16.3c34.6,4.6,62.5,13.4,89.2,25.2c2.3,1,2.9,3.5,5.2,4.5c52.2,25.4,77.2,69.8,64.9,125.1
			c-5.8,26.2-20.4,53.7-42.1,80.7c-22.8,28.4-59,58.8-109.9,85.3c-37.7,19.5-78.5,33.4-120.7,38.7c-19.5,2.5-35.7,2.5-50.4-0.4
			c-22.5-4.5-39.6,4.2-68,7.6c-44.2,5.3-84.1,23.3-151.2,55.3c-17.1,8.1-35.7,17.3-56.6,27.1c-32.2,15.2-108.9,0.3-135.1,19.1
			c-52.7,37.8-26.9,33.8-23.1,38c3.1,3.4,2.8,9.3,1.4,14c-13.7,45.2-32.5,86.2-14,119.1c2.7,4.8,6.6,8.9,9.8,14.3
			c16.7,28.6,45.6,52.7,90.1,65.7"/>
		<path class="st62" d="M644,18.2c35,4.6,63.3,13.4,90.3,25.4c2.3,1,3,3.5,5.2,4.6c52.9,25.5,78.2,70.1,65.9,125.7
			c-5.9,26.3-20.7,53.9-42.7,81.1c-23.2,28.5-59.8,59-110.9,85.5c-37.9,19.6-78.9,33.4-121.2,38.7c-19.6,2.4-35.8,2.5-50.6-0.4
			c-22.6-4.5-39.8,4.2-68.3,7.6c-44.4,5.3-84.3,23.5-151.8,55.7c-17.1,8.2-35.8,17.5-56.8,27.4c-32.3,15.3-109.4,0.3-135.6,19.2
			c-53,38.2-27,34-23,38.3c3.1,3.4,2.9,9.3,1.5,14.1c-13.6,45.4-32.5,86.7-13.6,119.8c2.7,4.8,6.7,8.9,9.9,14.4
			c17,28.7,46.3,52.7,91.1,65.9"/>
		<path class="st63" d="M648.5,20.1c35.4,4.6,64.1,13.5,91.4,25.5c2.3,1,3,3.5,5.3,4.6c53.6,25.7,79.3,70.4,66.8,126.2
			c-5.9,26.4-20.9,54.2-43.3,81.5c-23.5,28.7-60.5,59.1-111.9,85.7c-38.1,19.6-79.4,33.5-121.8,38.7c-19.6,2.4-36,2.5-50.8-0.5
			c-22.7-4.6-39.9,4.2-68.6,7.6c-44.5,5.3-84.6,23.6-152.3,56.2c-17.2,8.3-35.9,17.6-57,27.6c-32.3,15.4-109.9,0.3-136.2,19.3
			c-53.3,38.5-27,34.2-23,38.5c3.2,3.4,2.9,9.4,1.5,14.1C35.2,591,16.3,632.5,35.4,665.7c2.8,4.9,6.8,9,10.1,14.5
			c17.3,28.8,46.9,52.8,92.1,66"/>
		<path class="st64" d="M653,21.9c35.9,4.7,64.9,13.6,92.5,25.7c2.4,1,3,3.5,5.4,4.6c54.3,25.8,80.4,70.8,67.7,126.8
			c-6,26.5-21.1,54.4-43.9,81.9c-23.9,28.8-61.2,59.3-113,86c-38.4,19.7-79.8,33.5-122.3,38.7c-19.7,2.4-36.1,2.5-51-0.5
			c-22.8-4.6-40,4.2-68.8,7.6c-44.7,5.3-84.9,23.8-152.9,56.7c-17.2,8.3-36.1,17.7-57.2,27.9c-32.4,15.5-110.3,0.3-136.7,19.4
			c-53.6,38.8-27.1,34.4-22.9,38.7c3.2,3.4,3,9.5,1.6,14.2c-13.5,46-32.4,87.8-13,121.1c2.8,4.9,6.8,9,10.2,14.5
			c17.5,28.8,47.6,52.8,93.1,66.2"/>
		<path class="st65" d="M657.5,23.8c36.3,4.7,65.6,13.7,93.6,25.8c2.4,1,3.1,3.5,5.4,4.7c54.9,25.9,81.4,71.1,68.7,127.4
			c-6,26.6-21.4,54.7-44.5,82.3c-24.3,29-62,59.5-114,86.2c-38.6,19.7-80.2,33.5-122.9,38.7c-19.8,2.4-36.3,2.4-51.2-0.6
			c-22.9-4.7-40.2,4.2-69.1,7.7c-44.9,5.4-85.2,23.9-153.4,57.1c-17.3,8.4-36.2,17.9-57.4,28.1c-32.5,15.6-110.8,0.4-137.2,19.5
			c-53.9,39.1-27.1,34.6-22.9,39c3.3,3.4,3.1,9.5,1.7,14.3C40.9,600.2,22,642.3,41.6,675.8c2.9,4.9,6.9,9,10.3,14.6
			c17.8,28.9,48.2,52.9,94.1,66.3"/>
		<path class="st65" d="M662,25.6c36.7,4.7,66.4,13.8,94.7,26c2.4,1,3.1,3.6,5.5,4.7c55.6,26.1,82.5,71.4,69.6,128
			c-6.1,26.7-21.6,54.9-45.1,82.7c-24.7,29.1-62.7,59.7-115,86.4c-38.8,19.8-80.6,33.6-123.4,38.8c-19.9,2.4-36.5,2.4-51.4-0.7
			c-23-4.8-40.3,4.2-69.4,7.7c-45,5.4-85.4,24.1-154,57.6c-17.3,8.5-36.3,18-57.6,28.3c-32.5,15.7-111.2,0.4-137.8,19.7
			c-54.2,39.4-27.1,34.8-22.8,39.2c3.4,3.4,3.1,9.6,1.7,14.4c-13.4,46.5-32.3,88.8-12.4,122.5c2.9,4.9,7,9.1,10.5,14.7
			c18.1,29,48.9,52.9,95.1,66.5"/>
		<path class="st65" d="M666.5,27.5c37.1,4.8,67.2,13.9,95.8,26.1c2.4,1,3.2,3.6,5.6,4.7c56.3,26.2,83.5,71.7,70.6,128.6
			c-6.1,26.8-21.8,55.2-45.7,83.1c-25.1,29.3-63.4,59.9-116,86.6c-39,19.8-81,33.6-124,38.8c-20,2.4-36.6,2.4-51.6-0.7
			c-23.1-4.8-40.5,4.2-69.7,7.7c-45.2,5.4-85.7,24.2-154.6,58c-17.4,8.5-36.4,18.2-57.8,28.6c-32.6,15.9-111.7,0.4-138.3,19.8
			c-54.5,39.7-27.2,35-22.8,39.4c3.4,3.4,3.2,9.6,1.8,14.5c-13.3,46.8-32.2,89.4-12.1,123.2c2.9,5,7.1,9.1,10.6,14.7
			c18.3,29.1,49.5,53,96.1,66.7"/>
		<path class="st66" d="M671,29.4c37.5,4.8,67.9,14,96.9,26.3c2.5,1,3.2,3.6,5.6,4.7c57,26.3,84.6,72,71.5,129.2
			c-6.2,27-22,55.4-46.3,83.5c-25.5,29.5-64.2,60.1-117,86.8c-39.2,19.9-81.4,33.6-124.5,38.8c-20.1,2.4-36.8,2.4-51.8-0.8
			c-23.2-4.9-40.6,4.2-69.9,7.7c-45.3,5.4-86,24.4-155.1,58.5c-17.4,8.6-36.5,18.3-58,28.8c-32.7,16-112.2,0.4-138.8,19.9
			c-54.8,40.1-27.2,35.2-22.7,39.7c3.5,3.4,3.2,9.7,1.9,14.6C49.5,614.1,30.6,657,51,690.9c3,5,7.1,9.2,10.7,14.8
			c18.6,29.1,50.2,53,97.1,66.8"/>
		<path class="st66" d="M675.5,31.2c38,4.9,68.7,14.1,98,26.5c2.5,1.1,3.2,3.6,5.7,4.8c57.6,26.5,85.6,72.3,72.4,129.8
			c-6.2,27.1-22.3,55.7-46.8,83.9c-25.8,29.6-64.9,60.3-118,87.1c-39.5,19.9-81.8,33.7-125.1,38.8c-20.2,2.4-36.9,2.3-52-0.9
			c-23.3-4.9-40.8,4.2-70.2,7.7c-45.5,5.5-86.3,24.5-155.7,59c-17.5,8.7-36.7,18.5-58.2,29.1c-32.7,16.1-112.6,0.4-139.3,20
			c-55.1,40.4-27.2,35.4-22.7,39.9c3.5,3.4,3.3,9.7,1.9,14.7C52.4,618.7,33.5,661.8,54.1,696c3,5,7.2,9.2,10.9,14.9
			c18.9,29.2,50.8,53.1,98.1,67"/>
		<path class="st66" d="M680.1,33.1c38.4,4.9,69.5,14.2,99.1,26.6c2.5,1.1,3.3,3.7,5.8,4.8c58.3,26.6,86.7,72.6,73.4,130.4
			c-6.3,27.2-22.5,56-47.4,84.2c-26.2,29.8-65.6,60.5-119,87.3c-39.7,19.9-82.3,33.7-125.6,38.8c-20.3,2.4-37.1,2.3-52.2-0.9
			c-23.4-5-40.9,4.2-70.5,7.7c-45.7,5.5-86.6,24.6-156.2,59.4c-17.5,8.8-36.8,18.6-58.4,29.3c-32.8,16.2-113.1,0.5-139.9,20.1
			c-55.4,40.7-27.3,35.6-22.6,40.1c3.6,3.4,3.4,9.8,2,14.8c-13.1,47.6-32.1,91-11.2,125.3c3.1,5,7.3,9.3,11,14.9
			c19.1,29.3,51.5,53.1,99.1,67.1"/>
		<path class="st67" d="M684.6,34.9c38.8,4.9,70.3,14.3,100.2,26.8c2.5,1.1,3.3,3.7,5.8,4.8c59,26.7,87.7,72.9,74.3,131
			c-6.3,27.3-22.7,56.2-48,84.6c-26.6,29.9-66.4,60.7-120.1,87.5c-39.9,20-82.7,33.8-126.2,38.8c-20.4,2.4-37.3,2.3-52.5-1
			c-23.5-5.1-41,4.2-70.7,7.8c-45.8,5.5-86.8,24.8-156.8,59.9c-17.6,8.8-36.9,18.8-58.6,29.5c-32.9,16.3-113.6,0.5-140.4,20.3
			c-55.7,41-27.3,35.8-22.6,40.4c3.6,3.5,3.4,9.9,2.1,14.9c-13,47.9-32,91.5-10.9,125.9c3.1,5.1,7.4,9.3,11.1,15
			c19.4,29.4,52.2,53.2,100.1,67.3"/>
		<path class="st67" d="M689.1,36.8c39.2,5,71,14.3,101.3,26.9c2.6,1.1,3.4,3.7,5.9,4.9c59.7,26.9,88.8,73.2,75.3,131.5
			c-6.4,27.4-23,56.5-48.6,85c-27,30.1-67.1,60.9-121.1,87.7c-40.1,20-83.1,33.8-126.7,38.9c-20.5,2.4-37.4,2.3-52.7-1
			c-23.6-5.1-41.2,4.2-71,7.8c-46,5.5-87.1,24.9-157.3,60.3c-17.6,8.9-37,18.9-58.8,29.8c-32.9,16.4-114,0.5-140.9,20.4
			c-56,41.3-27.4,36-22.5,40.6c3.7,3.5,3.5,9.9,2.1,14.9c-13,48.1-32,92-10.6,126.6c3.1,5.1,7.4,9.4,11.3,15.1
			c19.7,29.4,52.8,53.2,101.1,67.4"/>
		<path class="st68" d="M693.6,38.7c39.6,5,71.8,14.4,102.4,27.1c2.6,1.1,3.4,3.7,6,4.9c60.3,27,89.9,73.5,76.2,132.1
			c-6.4,27.5-23.2,56.7-49.2,85.4c-27.4,30.3-67.9,61.1-122.1,87.9c-40.4,20.1-83.5,33.8-127.3,38.9c-20.6,2.4-37.6,2.2-52.9-1.1
			c-23.7-5.2-41.3,4.2-71.3,7.8c-46.2,5.6-87.4,25.1-157.9,60.8c-17.7,9-37.1,19.1-59,30C205.5,529,124,513,97.1,533
			c-56.3,41.7-27.4,36.2-22.5,40.8c3.7,3.5,3.5,10,2.2,15c-12.9,48.4-31.9,92.6-10.2,127.3c3.2,5.1,7.5,9.4,11.4,15.1
			c19.9,29.5,53.5,53.3,102.1,67.6"/>
		<path class="st69" d="M698.1,40.5c40.1,5.1,72.6,14.5,103.5,27.2c2.6,1.1,3.5,3.8,6,4.9c61,27.2,90.9,73.8,77.1,132.7
			c-6.5,27.6-23.4,57-49.8,85.8c-27.8,30.4-68.6,61.3-123.1,88.2c-40.6,20.1-83.9,33.9-127.8,38.9c-20.7,2.4-37.7,2.2-53.1-1.2
			c-23.8-5.2-41.5,4.2-71.5,7.8c-46.3,5.6-87.7,25.2-158.5,61.2c-17.8,9-37.3,19.2-59.2,30.2c-33.1,16.6-115,0.6-142,20.6
			c-56.6,42-27.4,36.4-22.4,41.1c3.8,3.5,3.6,10,2.3,15.1c-12.8,48.7-31.9,93.1-9.9,128c3.2,5.1,7.6,9.5,11.5,15.2
			c20.2,29.6,54.1,53.3,103.1,67.7"/>
		<path class="st70" d="M702.6,42.4c40.5,5.1,73.3,14.6,104.6,27.4c2.7,1.1,3.5,3.8,6.1,4.9c61.7,27.3,92,74.1,78.1,133.3
			c-6.5,27.7-23.7,57.2-50.4,86.2c-28.2,30.6-69.3,61.5-124.1,88.4c-40.8,20.2-84.3,33.9-128.4,38.9c-20.8,2.4-37.9,2.2-53.3-1.2
			c-23.9-5.3-41.6,4.2-71.8,7.8c-46.5,5.6-88,25.4-159,61.7c-17.8,9.1-37.4,19.3-59.4,30.5c-33.1,16.8-115.4,0.6-142.5,20.7
			c-56.9,42.3-27.5,36.6-22.4,41.3c3.8,3.5,3.7,10.1,2.3,15.2c-12.8,48.9-31.8,93.7-9.6,128.7c3.3,5.2,7.7,9.5,11.6,15.3
			c20.5,29.7,54.8,53.4,104.1,67.9"/>
		<path class="st70" d="M707.1,44.3C748,49.4,781.2,59,812.8,71.8c2.7,1.1,3.5,3.8,6.2,5c62.4,27.4,93,74.4,79,133.9
			c-6.6,27.8-23.9,57.5-50.9,86.6c-28.6,30.7-70.1,61.7-125.1,88.6c-41,20.2-84.7,34-128.9,38.9c-20.9,2.3-38.1,2.2-53.5-1.3
			c-24-5.3-41.8,4.2-72.1,7.8c-46.7,5.6-88.2,25.5-159.6,62.2c-17.9,9.2-37.5,19.5-59.6,30.7c-33.2,16.9-115.9,0.6-143,20.8
			c-57.2,42.6-27.5,36.8-22.3,41.5c3.9,3.5,3.7,10.1,2.4,15.3c-12.7,49.2-31.7,94.2-9.3,129.4c3.3,5.2,7.7,9.6,11.8,15.3
			c20.7,29.8,55.4,53.4,105.1,68"/>
		<path class="st70" d="M711.6,46.1c41.3,5.2,74.9,14.8,106.8,27.7c2.7,1.1,3.6,3.8,6.3,5c63,27.6,94.1,74.7,79.9,134.5
			c-6.6,28-24.1,57.7-51.5,87c-28.9,30.9-70.8,61.8-126.2,88.8c-41.2,20.3-85.1,34-129.5,38.9c-21,2.3-38.2,2.1-53.7-1.3
			c-24.1-5.4-41.9,4.2-72.4,7.9c-46.8,5.7-88.6,25.5-160.1,62.6c-17.9,9.2-37.6,19.6-59.8,31c-33.2,17-116.3,0.6-143.6,21
			c-57.5,42.9-27.6,37.1-22.3,41.8c3.9,3.5,3.8,10.2,2.4,15.4c-12.6,49.5-31.7,94.7-9,130c3.3,5.2,7.8,9.6,11.9,15.4
			c21,29.8,56.1,53.5,106.1,68.2"/>
		<path class="st71" d="M716.1,48c41.7,5.2,75.7,14.9,107.9,27.8c2.7,1.1,3.6,3.8,6.3,5c63.7,27.7,95.1,75,80.9,135.1
			c-6.7,28.1-24.4,58-52.1,87.4c-29.3,31.1-71.5,62-127.2,89.1c-41.5,20.3-85.6,34-130.1,39c-21.1,2.3-38.4,2.1-53.9-1.4
			c-24.2-5.5-42,4.2-72.6,7.9c-47,5.7-88.9,25.7-160.7,63.1c-18,9.3-37.7,19.8-60,31.2c-33.3,17.1-116.8,0.7-144.1,21.1
			c-57.8,43.3-27.6,37.3-22.2,42c4,3.5,3.8,10.3,2.5,15.5c-12.6,49.7-31.6,95.3-8.7,130.7c3.4,5.2,7.9,9.6,12,15.5
			c21.3,29.9,56.7,53.5,107.1,68.3"/>
		<path class="st71" d="M720.6,49.8c42.1,5.3,76.4,15,109,28c2.8,1.1,3.7,3.9,6.4,5c64.4,27.8,96.2,75.4,81.8,135.7
			c-6.7,28.2-24.5,58.3-52.7,87.8c-29.7,31.3-72.3,62.2-128.2,89.3c-41.7,20.4-86,34.1-130.6,39c-21.2,2.3-38.5,2.1-54.1-1.5
			c-24.3-5.5-42.2,4.2-72.9,7.9c-47.1,5.7-89.1,25.9-161.2,63.5c-18,9.4-37.9,19.9-60.2,31.4c-33.4,17.2-117.3,0.7-144.6,21.2
			c-58.1,43.6-27.6,37.5-22.2,42.2c4,3.5,3.9,10.3,2.6,15.6c-12.5,50-31.6,95.8-8.4,131.4c3.4,5.3,8,9.7,12.2,15.5
			c21.6,30,57.4,53.6,108,68.5"/>
		<path class="st71" d="M725.1,51.7c42.6,5.3,77.2,15.1,110.1,28.1c2.8,1.1,3.7,3.9,6.5,5.1c65.1,28,97.3,75.7,82.8,136.2
			c-6.8,28.3-24.8,58.5-53.3,88.2c-30.1,31.4-73,62.4-129.2,89.5c-41.9,20.4-86.4,34.1-131.2,39c-21.3,2.3-38.7,2.1-54.3-1.5
			c-24.4-5.6-42.3,4.2-73.2,7.9c-47.3,5.7-89.4,26-161.8,64c-18.1,9.4-38,20.1-60.4,31.7c-33.4,17.3-117.7,0.7-145.1,21.3
			c-58.4,43.9-27.7,37.7-22.1,42.5c4.1,3.5,3.9,10.4,2.6,15.7c-12.4,50.3-31.5,96.3-8.1,132.1c3.5,5.3,8,9.7,12.3,15.6
			c21.8,30.1,58,53.6,109,68.6"/>
		<path class="st72" d="M729.6,53.6c43,5.3,78,15.2,111.2,28.3c2.8,1.1,3.7,3.9,6.5,5.1c65.8,28.1,98.3,76,83.7,136.8
			c-6.8,28.4-25,58.8-53.9,88.5c-30.5,31.6-73.8,62.5-130.2,89.7c-42.2,20.4-86.8,34.1-131.7,39c-21.4,2.3-38.9,2-54.5-1.6
			c-24.5-5.6-42.5,4.2-73.4,7.9c-47.5,5.8-89.7,26.2-162.4,64.4c-18.1,9.5-38.1,20.2-60.6,31.9c-33.5,17.4-118.2,0.7-145.7,21.4
			c-58.7,44.2-27.7,37.9-22.1,42.7c4.1,3.5,4,10.4,2.7,15.7c-12.4,50.5-31.5,96.9-7.8,132.8c3.5,5.3,8.1,9.8,12.4,15.7
			c22.1,30.2,58.7,53.7,110,68.8"/>
		<path class="st72" d="M734.1,55.4c43.4,5.4,78.7,15.2,112.3,28.4c2.8,1.1,3.8,3.9,6.6,5.1c66.4,28.2,99.4,76.3,84.6,137.4
			c-6.9,28.5-25.3,59-54.5,88.9c-30.9,31.7-74.5,62.7-131.2,89.9c-42.4,20.4-87.2,34.2-132.3,39c-21.5,2.3-39,2-54.7-1.6
			c-24.6-5.7-42.6,4.2-73.7,7.9c-47.6,5.8-89.9,26.4-162.9,64.9c-18.2,9.6-38.2,20.4-60.8,32.2c-33.6,17.5-118.7,0.8-146.2,21.6
			c-59,44.5-27.8,38.1-22,42.9c4.2,3.5,4.1,10.5,2.8,15.8c-12.3,50.8-31.4,97.4-7.5,133.5c3.5,5.3,8.2,9.8,12.6,15.7
			c22.4,30.3,59.3,53.7,111,68.9"/>
		<path class="st73" d="M738.6,57.3C782.5,62.7,818,73,852,85.9c2.9,1.2,3.8,4,6.7,5.2c66.7,29.4,99.6,76.4,85.6,138
			c-15,58.8-76.4,126.7-187.3,179.5c-42.6,20.5-87.7,33.5-132.8,39c-21.6,1.9-39.1,1.4-54.9-1.7c-24.4-6.6-42.7,4.2-74,8
			c-59.7,7.2-111,37.8-224.5,97.8c-33.7,17.6-119.1,0.9-146.7,21.7c-59.1,45-28.3,39-22,43.2c3.8,4,3.5,10.4,2.8,15.9
			c-18.2,49.3-27.4,95.6-7.2,134.2c4.1,4.9,8.2,9.9,12.7,15.8c22.5,30.4,60,53.8,112,69.1"/>
	</g>
	<g class="st74">
		<path class="st75" d="M486.7-36.9c-0.4,0.4-0.7,0.8-1,1.3c3.5,3.4,6.5,7.1,10.1,10.3c0.4-0.4,0.7-0.5,0.9-0.8
			c2.6-2.9,5.1-5.7,7.8-8.6c2.3-2.4,4.7-4.6,8-5.6c5.7-1.9,11-1.2,16.1,1.9c5.8,3.5,11.8,11.9,9.7,21.1c-0.9,3.9-2.9,7.1-5.7,9.8
			c-7.7,7.8-15.4,15.6-23.2,23.3c-10.2,10.3-20.5,20.5-30.7,30.8c-0.4,0.4-1,0.8-1.6,1.3c-6.6-6.8-13.1-13.5-19.8-20.3
			c-3.7,3.4-7.2,6.7-10.7,10.3c7.2,6.7,14.2,13.3,21.1,19.8c-0.4,0.6-0.7,0.9-0.9,1.2c-2.9,2.8-5.7,5.7-8.6,8.4
			c-3.6,3.3-7.2,6.9-11.1,9.9c-7,5.3-13.2,5.8-20,1.7c-3.3-2-6.1-4.7-8.3-7.9c-3.2-4.6-4-9.7-2-15c1.5-3.8,3.7-7.3,6.6-10.2
			c14.2-14.1,28.3-28.1,42.5-42.1c1.5-1.5,2.9-2.9,4.3-4.4c-3.4-3.4-6.7-6.6-10-9.9c-1,1-1.8,1.9-2.7,2.8
			c-10.6,10.5-21.1,21-31.7,31.6c-5.3,5.3-10.7,10.6-15.6,16.3c-7.9,9-9.9,19.6-6.2,31c3.1,9.6,9.8,16.4,18.8,20.8
			c7.6,3.7,15.5,4.1,23.6,1.5c5.8-1.9,10.6-5.2,14.8-9.5c4.6-4.6,9.2-9.1,13.8-13.7c0.8-0.8,1.6-1.5,2.3-2.1
			c0.4,0.3,0.6,0.3,0.7,0.4c6.4,6.2,12.6,12.6,19.2,18.5c7.7,6.9,16.7,9.6,26.9,7.6c12.9-2.6,21.4-10.2,26-22.4c0.8-2,1.2-4.2,2-6.2
			c1.1-2.8,1.1-5.6,0.8-8.5c-0.2-1.6-0.8-3.1-1.1-4.7c-1.3-5.5-3.9-10.3-7.9-14.3c-3-3-6.1-5.9-9.2-8.8c-0.9-0.8-1.8-1.6-2.8-2.6
			c-3,3.2-6,6.4-9.3,9.9c0.6,0.4,1.1,0.7,1.5,1.1c3.3,3.5,6.8,7,9.9,10.7c4.9,5.8,6.3,12.2,3.3,19.4c-2,4.6-5.4,7.9-9.6,10.4
			c-8.1,4.9-17.4,2-22.6-2.9c-5.5-5.2-10.9-10.6-16.4-15.9c-1.5-1.5-1.5-1.7,0-3.3c3.3-3.3,6.6-6.7,10-10
			C512.4,32.7,526.2,18.9,540,5c2.4-2.4,4.7-5,6.8-7.8c3.8-4.9,5.3-10.7,6.2-16.7c0.5-3.6-0.9-6.9-1.9-10.3c-2.5-9-8-15.8-15.8-20.6
			c-12-7.3-25.3-6.7-36.3,2C494.5-45,490.7-40.8,486.7-36.9z"/>
		<path class="st75" d="M430.6,0.6c-2.8-2.6-5.6-5-8.2-7.7c-3-3.1-5.2-6.7-5.9-11c-1-6.3,0.8-11.7,5-16.4c4.6-5.1,10.4-7.6,17.4-6.9
			c4.9,0.5,8.8,3,12.3,6.4c3.3,3.2,6.6,6.6,9.8,9.8c10.8,10.9,21.7,21.8,32.5,32.6c1.3,1.3,2.5,2.9,4.4,3.7c2.9-2.8,5.7-5.4,8.5-8.2
			c0.3-0.3,0.5-0.6,1-1.2c-2.3-2.3-4.3-4.5-6.5-6.7c-10.2-10.2-20.5-20.5-30.8-30.7c-4.1-4-8.1-8.2-12.3-12.1
			c-7.4-6.9-16.3-9.2-26.2-7.7c-8.6,1.3-15.6,5.6-21.2,12.2c-5,5.9-7.8,12.9-8.6,20.5c-0.7,6.7,1.7,12.8,5.1,18.4
			c3,5,7.4,8.8,11.4,13c1.1,1.1,2.2,2.1,3.4,3.3c3.6-3.3,7-6.6,10.7-10C431.7,1.5,431.1,1.1,430.6,0.6z"/>
	</g>
</g>
</svg>
